<svg width="351" height="45" viewBox="0 0 351 45" fill="none" xmlns="http://www.w3.org/2000/svg">
<path d="M0.292 44L9.34 1.37H15.546C16.7447 1.37 18.0207 1.41833 19.374 1.515C20.7467 1.61167 22.0323 1.892 23.231 2.356C24.449 2.82 25.435 3.603 26.189 4.705C26.9623 5.78767 27.349 7.315 27.349 9.287C27.349 10.8143 27.088 12.274 26.566 13.666C26.044 15.0387 25.2707 16.3727 24.246 17.668C23.2213 18.9633 21.9357 20.2393 20.389 21.496C21.5297 22.0567 22.361 22.917 22.883 24.077C23.4243 25.2177 23.695 26.7063 23.695 28.543C23.695 30.979 23.2793 33.154 22.448 35.068C21.636 36.982 20.5243 38.606 19.113 39.94C17.721 41.274 16.126 42.289 14.328 42.985C12.5493 43.6617 10.6933 44 8.76 44H0.292ZM8.644 37.794C9.78467 37.794 10.819 37.62 11.747 37.272C12.6943 36.924 13.5063 36.3827 14.183 35.648C14.879 34.9133 15.4107 33.9853 15.778 32.864C16.1453 31.7427 16.329 30.4087 16.329 28.862C16.329 27.702 16.1937 26.8223 15.923 26.223C15.6717 25.6237 15.198 25.2177 14.502 25.005C13.806 24.7923 12.791 24.686 11.457 24.686L8.644 37.794ZM12.675 18.944C14.1637 18.944 15.459 18.6927 16.561 18.19C17.6823 17.668 18.5427 16.8753 19.142 15.812C19.7607 14.7293 20.07 13.3373 20.07 11.636C20.07 10.0507 19.722 8.97766 19.026 8.417C18.33 7.85633 17.0153 7.576 15.082 7.576L12.675 18.944ZM34.0657 44.464C31.2237 44.464 29.1163 43.6037 27.7437 41.883C26.371 40.143 25.9843 37.8423 26.5837 34.981L31.7747 10.476C32.3933 7.576 33.7563 5.256 35.8637 3.516C37.9903 1.776 40.494 0.905998 43.3747 0.905998C46.2553 0.905998 48.382 1.776 49.7547 3.516C51.1273 5.23667 51.5043 7.52767 50.8857 10.389L45.6947 34.894C45.0953 37.7553 43.7227 40.0657 41.5767 41.825C39.45 43.5843 36.9463 44.464 34.0657 44.464ZM35.3707 38.374C36.2213 38.374 36.9463 38.084 37.5457 37.504C38.145 36.9047 38.5607 36.0443 38.7927 34.923L43.9837 10.447C44.2157 9.345 44.1577 8.49433 43.8097 7.895C43.481 7.29567 42.8913 6.996 42.0407 6.996C41.1707 6.996 40.436 7.30533 39.8367 7.924C39.2567 8.52333 38.8507 9.36433 38.6187 10.447L33.4277 34.923C33.1957 36.025 33.2537 36.8757 33.6017 37.475C33.9497 38.0743 34.5393 38.374 35.3707 38.374ZM48.8607 44L57.9087 1.37H64.9557L55.9367 44H48.8607ZM61.1517 44L70.1997 1.37H77.2467L69.4167 38.2H79.4507L78.2617 44H61.1517ZM80.9759 44L90.0239 1.37H106.844L105.452 7.808H95.6789L93.3009 19.002H100.319L98.8689 25.846H91.8509L89.3569 37.562H99.1299L97.8249 44H80.9759ZM101.679 44L110.727 1.37H117.716C118.431 1.37 119.378 1.428 120.558 1.544C121.737 1.64066 122.926 1.95966 124.125 2.501C125.343 3.023 126.358 3.90267 127.17 5.14C128.001 6.37733 128.417 8.127 128.417 10.389C128.417 11.781 128.243 13.1537 127.895 14.507C127.566 15.841 127.102 17.0977 126.503 18.277C125.903 19.4563 125.198 20.4907 124.386 21.38C123.593 22.25 122.742 22.9073 121.834 23.352L122.008 44H114.903L115.019 26.339H112.467L108.697 44H101.679ZM113.772 20.075C114.912 20.075 115.937 19.9203 116.846 19.611C117.774 19.3017 118.566 18.828 119.224 18.19C119.881 17.552 120.384 16.74 120.732 15.754C121.099 14.768 121.283 13.608 121.283 12.274C121.283 11.0753 121.118 10.1377 120.79 9.461C120.48 8.78433 119.968 8.301 119.253 8.011C118.557 7.721 117.619 7.576 116.44 7.576L113.772 20.075ZM126.091 44L135.139 1.37H142.157C144.535 1.37 146.536 1.73733 148.16 2.472C149.803 3.20667 151.04 4.30866 151.872 5.778C152.722 7.24733 153.148 9.084 153.148 11.288C153.148 13.2987 152.79 15.2417 152.075 17.117C151.359 18.9923 150.306 20.6743 148.914 22.163C147.522 23.6323 145.811 24.802 143.781 25.672C141.751 26.5227 139.411 26.948 136.763 26.948L133.138 44H126.091ZM138.126 20.568C139.228 20.568 140.243 20.452 141.171 20.22C142.118 19.988 142.94 19.582 143.636 19.002C144.332 18.422 144.873 17.6197 145.26 16.595C145.646 15.551 145.84 14.2363 145.84 12.651C145.84 11.433 145.695 10.476 145.405 9.78C145.115 9.06467 144.602 8.562 143.868 8.272C143.152 7.96267 142.137 7.808 140.823 7.808L138.126 20.568ZM149.851 44L158.899 1.37H165.946L158.116 38.2H168.15L166.961 44H149.851ZM167.587 44L184.407 1.37H193.136L191.889 44H185.074L185.393 35.3H177.592L174.402 44H167.587ZM180.173 28.688H185.77L186.031 16.595L186.118 15.029H185.625L185.016 16.595L180.173 28.688ZM197.224 44L204.851 7.808H197.688L199.08 1.37H220.424L219.032 7.808H211.869L204.242 44H197.224ZM213.911 44L222.959 1.37H239.779L238.387 7.808H228.614L226.236 19.002H233.254L231.804 25.846H224.786L222.292 37.562H232.065L230.76 44H213.911ZM255.231 44L264.279 1.37H270.485C271.684 1.37 272.96 1.41833 274.313 1.515C275.686 1.61167 276.972 1.892 278.17 2.356C279.388 2.82 280.374 3.603 281.128 4.705C281.902 5.78767 282.288 7.315 282.288 9.287C282.288 10.8143 282.027 12.274 281.505 13.666C280.983 15.0387 280.21 16.3727 279.185 17.668C278.161 18.9633 276.875 20.2393 275.328 21.496C276.469 22.0567 277.3 22.917 277.822 24.077C278.364 25.2177 278.634 26.7063 278.634 28.543C278.634 30.979 278.219 33.154 277.387 35.068C276.575 36.982 275.464 38.606 274.052 39.94C272.66 41.274 271.065 42.289 269.267 42.985C267.489 43.6617 265.633 44 263.699 44H255.231ZM263.583 37.794C264.724 37.794 265.758 37.62 266.686 37.272C267.634 36.924 268.446 36.3827 269.122 35.648C269.818 34.9133 270.35 33.9853 270.717 32.864C271.085 31.7427 271.268 30.4087 271.268 28.862C271.268 27.702 271.133 26.8223 270.862 26.223C270.611 25.6237 270.137 25.2177 269.441 25.005C268.745 24.7923 267.73 24.686 266.396 24.686L263.583 37.794ZM267.614 18.944C269.103 18.944 270.398 18.6927 271.5 18.19C272.622 17.668 273.482 16.8753 274.081 15.812C274.7 14.7293 275.009 13.3373 275.009 11.636C275.009 10.0507 274.661 8.97766 273.965 8.417C273.269 7.85633 271.955 7.576 270.021 7.576L267.614 18.944ZM279.841 44L288.889 1.37H295.936L288.106 38.2H298.14L296.951 44H279.841ZM308.829 44.464C305.987 44.464 303.88 43.6037 302.507 41.883C301.135 40.143 300.748 37.8423 301.347 34.981L306.538 10.476C307.157 7.576 308.52 5.256 310.627 3.516C312.754 1.776 315.258 0.905998 318.138 0.905998C321.019 0.905998 323.146 1.776 324.518 3.516C325.891 5.23667 326.268 7.52767 325.649 10.389L320.458 34.894C319.859 37.7553 318.486 40.0657 316.34 41.825C314.214 43.5843 311.71 44.464 308.829 44.464ZM310.134 38.374C310.985 38.374 311.71 38.084 312.309 37.504C312.909 36.9047 313.324 36.0443 313.556 34.923L318.747 10.447C318.979 9.345 318.921 8.49433 318.573 7.895C318.245 7.29567 317.655 6.996 316.804 6.996C315.934 6.996 315.2 7.30533 314.6 7.924C314.02 8.52333 313.614 9.36433 313.382 10.447L308.191 34.923C307.959 36.025 308.017 36.8757 308.365 37.475C308.713 38.0743 309.303 38.374 310.134 38.374ZM331.222 44.464C329.521 44.464 328.129 44.1063 327.046 43.391C325.964 42.6757 325.239 41.6123 324.871 40.201C324.523 38.7703 324.581 37.011 325.045 34.923L330.468 10.476C331.126 7.518 332.498 5.18833 334.586 3.487C336.674 1.76633 339.159 0.905998 342.039 0.905998C344.959 0.905998 347.105 1.776 348.477 3.516C349.869 5.256 350.275 7.56633 349.695 10.447L348.448 16.682H341.43L342.764 10.447C343.016 9.30633 342.967 8.446 342.619 7.866C342.271 7.286 341.682 6.996 340.85 6.996C339.961 6.996 339.207 7.30533 338.588 7.924C337.989 8.52333 337.573 9.36433 337.341 10.447L332.005 35.445C331.793 36.4503 331.86 37.2817 332.208 37.939C332.576 38.577 333.156 38.896 333.948 38.896C334.76 38.896 335.456 38.5867 336.036 37.968C336.616 37.3493 337.022 36.5083 337.254 35.445L338.849 28.05H335.601L336.703 22.772H347.172L342.677 44H338.327L337.921 41.738C336.877 42.6273 335.843 43.304 334.818 43.768C333.794 44.232 332.595 44.464 331.222 44.464Z" fill="black"/>
</svg>
