<svg width="360" height="45" viewBox="0 0 360 45" fill="none" xmlns="http://www.w3.org/2000/svg">
<path d="M0.292 44L9.34 1.37H15.546C16.7447 1.37 18.0207 1.41833 19.374 1.515C20.7467 1.61167 22.0323 1.892 23.231 2.356C24.449 2.82 25.435 3.603 26.189 4.705C26.9623 5.78767 27.349 7.315 27.349 9.287C27.349 10.8143 27.088 12.274 26.566 13.666C26.044 15.0387 25.2707 16.3727 24.246 17.668C23.2213 18.9633 21.9357 20.2393 20.389 21.496C21.5297 22.0567 22.361 22.917 22.883 24.077C23.4243 25.2177 23.695 26.7063 23.695 28.543C23.695 30.979 23.2793 33.154 22.448 35.068C21.636 36.982 20.5243 38.606 19.113 39.94C17.721 41.274 16.126 42.289 14.328 42.985C12.5493 43.6617 10.6933 44 8.76 44H0.292ZM8.644 37.794C9.78467 37.794 10.819 37.62 11.747 37.272C12.6943 36.924 13.5063 36.3827 14.183 35.648C14.879 34.9133 15.4107 33.9853 15.778 32.864C16.1453 31.7427 16.329 30.4087 16.329 28.862C16.329 27.702 16.1937 26.8223 15.923 26.223C15.6717 25.6237 15.198 25.2177 14.502 25.005C13.806 24.7923 12.791 24.686 11.457 24.686L8.644 37.794ZM12.675 18.944C14.1637 18.944 15.459 18.6927 16.561 18.19C17.6823 17.668 18.5427 16.8753 19.142 15.812C19.7607 14.7293 20.07 13.3373 20.07 11.636C20.07 10.0507 19.722 8.97766 19.026 8.417C18.33 7.85633 17.0153 7.576 15.082 7.576L12.675 18.944ZM34.0657 44.464C31.2237 44.464 29.1163 43.6037 27.7437 41.883C26.371 40.143 25.9843 37.8423 26.5837 34.981L31.7747 10.476C32.3933 7.576 33.7563 5.256 35.8637 3.516C37.9903 1.776 40.494 0.905998 43.3747 0.905998C46.2553 0.905998 48.382 1.776 49.7547 3.516C51.1273 5.23667 51.5043 7.52767 50.8857 10.389L45.6947 34.894C45.0953 37.7553 43.7227 40.0657 41.5767 41.825C39.45 43.5843 36.9463 44.464 34.0657 44.464ZM35.3707 38.374C36.2213 38.374 36.9463 38.084 37.5457 37.504C38.145 36.9047 38.5607 36.0443 38.7927 34.923L43.9837 10.447C44.2157 9.345 44.1577 8.49433 43.8097 7.895C43.481 7.29567 42.8913 6.996 42.0407 6.996C41.1707 6.996 40.436 7.30533 39.8367 7.924C39.2567 8.52333 38.8507 9.36433 38.6187 10.447L33.4277 34.923C33.1957 36.025 33.2537 36.8757 33.6017 37.475C33.9497 38.0743 34.5393 38.374 35.3707 38.374ZM48.8607 44L57.9087 1.37H64.9557L55.9367 44H48.8607ZM61.1517 44L70.1997 1.37H77.2467L69.4167 38.2H79.4507L78.2617 44H61.1517ZM80.9759 44L90.0239 1.37H106.844L105.452 7.808H95.6789L93.3009 19.002H100.319L98.8689 25.846H91.8509L89.3569 37.562H99.1299L97.8249 44H80.9759ZM101.679 44L110.727 1.37H117.716C118.431 1.37 119.378 1.428 120.558 1.544C121.737 1.64066 122.926 1.95966 124.125 2.501C125.343 3.023 126.358 3.90267 127.17 5.14C128.001 6.37733 128.417 8.127 128.417 10.389C128.417 11.781 128.243 13.1537 127.895 14.507C127.566 15.841 127.102 17.0977 126.503 18.277C125.903 19.4563 125.198 20.4907 124.386 21.38C123.593 22.25 122.742 22.9073 121.834 23.352L122.008 44H114.903L115.019 26.339H112.467L108.697 44H101.679ZM113.772 20.075C114.912 20.075 115.937 19.9203 116.846 19.611C117.774 19.3017 118.566 18.828 119.224 18.19C119.881 17.552 120.384 16.74 120.732 15.754C121.099 14.768 121.283 13.608 121.283 12.274C121.283 11.0753 121.118 10.1377 120.79 9.461C120.48 8.78433 119.968 8.301 119.253 8.011C118.557 7.721 117.619 7.576 116.44 7.576L113.772 20.075ZM126.091 44L135.139 1.37H142.157C144.535 1.37 146.536 1.73733 148.16 2.472C149.803 3.20667 151.04 4.30866 151.872 5.778C152.722 7.24733 153.148 9.084 153.148 11.288C153.148 13.2987 152.79 15.2417 152.075 17.117C151.359 18.9923 150.306 20.6743 148.914 22.163C147.522 23.6323 145.811 24.802 143.781 25.672C141.751 26.5227 139.411 26.948 136.763 26.948L133.138 44H126.091ZM138.126 20.568C139.228 20.568 140.243 20.452 141.171 20.22C142.118 19.988 142.94 19.582 143.636 19.002C144.332 18.422 144.873 17.6197 145.26 16.595C145.646 15.551 145.84 14.2363 145.84 12.651C145.84 11.433 145.695 10.476 145.405 9.78C145.115 9.06467 144.602 8.562 143.868 8.272C143.152 7.96267 142.137 7.808 140.823 7.808L138.126 20.568ZM149.851 44L158.899 1.37H165.946L158.116 38.2H168.15L166.961 44H149.851ZM167.587 44L184.407 1.37H193.136L191.889 44H185.074L185.393 35.3H177.592L174.402 44H167.587ZM180.173 28.688H185.77L186.031 16.595L186.118 15.029H185.625L185.016 16.595L180.173 28.688ZM197.224 44L204.851 7.808H197.688L199.08 1.37H220.424L219.032 7.808H211.869L204.242 44H197.224ZM213.911 44L222.959 1.37H239.779L238.387 7.808H228.614L226.236 19.002H233.254L231.804 25.846H224.786L222.292 37.562H232.065L230.76 44H213.911ZM249.447 44L257.074 7.808H249.911L251.303 1.37H272.647L271.255 7.808H264.092L256.465 44H249.447ZM266.134 44L275.182 1.37H282.229L273.21 44H266.134ZM278.454 44L287.502 1.37H296.405L296.782 20.539L296.579 23.642H296.753L297.797 20.539L306.468 1.37H315.342L306.294 44H299.798L306.149 14.101L306.7 11.404H306.207L305.366 13.927L293.708 44H291.011L292.2 13.927L292.345 11.404H291.823L291.33 13.724L284.979 44H278.454ZM311.503 44L320.551 1.37H337.371L335.979 7.808H326.206L323.828 19.002H330.846L329.396 25.846H322.378L319.884 37.562H329.657L328.352 44H311.503ZM341.167 44.464C337.494 44.464 334.98 43.3717 333.627 41.187C332.293 39.0023 332.158 35.9477 333.221 32.023L340.239 31.501C339.698 34.1303 339.591 35.996 339.92 37.098C340.268 38.1807 341.09 38.722 342.385 38.722C343.332 38.722 344.144 38.49 344.821 38.026C345.517 37.562 346.049 36.9433 346.416 36.17C346.803 35.3773 346.996 34.488 346.996 33.502C346.996 33.096 346.938 32.69 346.822 32.284C346.725 31.878 346.522 31.3657 346.213 30.747C345.904 30.109 345.44 29.2487 344.821 28.166C344.202 27.064 343.381 25.6237 342.356 23.845C341.119 21.6603 340.181 19.5917 339.543 17.639C338.924 15.6863 338.615 13.9657 338.615 12.477C338.615 10.4277 339.147 8.55233 340.21 6.851C341.273 5.13033 342.704 3.73833 344.502 2.675C346.319 1.59233 348.33 1.00266 350.534 0.905998C353.763 0.751331 356.092 1.69867 357.523 3.748C358.954 5.778 359.253 8.61033 358.422 12.245L351.462 12.767C351.907 10.6597 351.955 9.113 351.607 8.127C351.278 7.141 350.544 6.648 349.403 6.648C348.726 6.648 348.098 6.822 347.518 7.17C346.957 7.49867 346.513 7.99167 346.184 8.649C345.855 9.30633 345.691 10.1183 345.691 11.085C345.691 11.955 345.846 12.825 346.155 13.695C346.464 14.565 346.919 15.5317 347.518 16.595C348.117 17.639 348.842 18.8957 349.693 20.365C350.621 21.9117 351.404 23.3133 352.042 24.57C352.699 25.8073 353.192 27.0157 353.521 28.195C353.869 29.355 354.043 30.602 354.043 31.936C354.043 34.1593 353.54 36.228 352.535 38.142C351.549 40.0367 350.099 41.564 348.185 42.724C346.271 43.884 343.932 44.464 341.167 44.464Z" fill="black"/>
</svg>
