<svg width="359" height="359" viewBox="0 0 359 359" fill="none" xmlns="http://www.w3.org/2000/svg">
<rect width="359" height="359" fill="#161412"/>
<path d="M90 138.579L108.528 46.6537L153.674 80.6212L163.015 63.6359L210.497 65.8426L261.074 57.6053L261.859 68.8059L238.531 85.0535L236.262 90.0375L269.476 90.5293L268.568 157.109L210.954 170.648L90 178.579" fill="white"/>
<path d="M48.2793 212.5L264.487 191.596L315.378 290.662L296.565 290.539L258.434 277.808L258.04 284.267L255.381 289.808L184.329 293.213L176.75 291.077L162.095 299.468L121.305 307.083L103.912 299.054L103.174 307.083L101.174 308.841L48.2793 307.718L44.5 254" fill="white"/>
<path d="M50.4164 311.921C50.2834 311.92 50.152 311.892 50.0305 311.837C49.909 311.783 49.8 311.704 49.7103 311.606L41.5 293.792V274.704L37 228.606C37 228.606 62.1951 180.245 62.1466 180.079C62.1509 180.066 85.5 111.079 85.5 111.079L85.5 80.3122C85.5 80.3122 91.3661 67.1742 91.5 67.0468L108.074 43L151.389 75.1548L162.829 61.4102L214.497 62.6365L266.323 51.644L265.34 72.1348L238.44 88.0577L269.649 89.2588L274.5 104.863V145.586V160.75L267.244 187.952H267.301C267.486 187.951 267.668 188.002 267.827 188.097C267.986 188.193 268.116 188.33 268.202 188.494L321.794 292.131C321.854 292.244 321.891 292.368 321.902 292.496C321.913 292.624 321.897 292.753 321.857 292.874C321.816 292.998 321.751 293.113 321.665 293.212C321.58 293.31 321.476 293.391 321.359 293.448C321.212 293.519 321.052 293.556 320.889 293.555L298.91 293.344C298.804 293.337 298.699 293.323 298.595 293.3L263.568 282.244C263.466 282.211 263.36 282.194 263.253 282.194C263.045 282.192 262.843 282.255 262.673 282.374C262.503 282.494 262.375 282.663 262.307 282.859C262.276 282.951 262.26 283.046 262.26 283.143L261.901 292.638C261.886 292.884 261.782 293.117 261.608 293.291C261.433 293.465 261.201 293.57 260.955 293.584L190.949 296.793H190.895C190.788 296.793 190.682 296.777 190.58 296.746L177.97 292.477C177.862 292.44 177.748 292.421 177.633 292.421C177.474 292.42 177.318 292.456 177.176 292.527C177.035 292.598 176.911 292.7 176.816 292.827L170.827 300.926C170.689 301.12 170.483 301.255 170.25 301.304L128.745 310.957C128.662 310.976 128.578 310.985 128.493 310.985C128.368 310.985 128.244 310.964 128.127 310.922L109.301 303.356C109.149 303.291 108.983 303.265 108.818 303.281C108.654 303.296 108.495 303.352 108.358 303.443C108.22 303.535 108.107 303.66 108.03 303.806C107.952 303.952 107.912 304.115 107.914 304.28L108.011 310.2C108.014 310.33 107.991 310.458 107.944 310.578C107.896 310.699 107.825 310.808 107.734 310.9C107.644 310.996 107.535 311.073 107.415 311.127C107.295 311.181 107.166 311.211 107.034 311.215L50.4637 311.921H50.4164ZM98.1443 212.655L49.1397 217.358L53.5531 305.992L101.533 305.472L101.643 291.04L65.3369 291.844C65.3054 291.289 61.7084 229.41 61.6265 228.559C61.6265 228.59 61.8156 228.606 62.1466 228.606C66.5411 228.606 97.1796 225.769 98.4816 225.658L98.1663 212.651L98.1443 212.655ZM112.986 212.311L115.12 293.792L128.874 304.283L167.157 295.51L173.065 287.594L170.278 216.094L160.131 206.813L159.563 206.882C149.053 208.143 114.631 212.311 113.04 212.311H112.986ZM195.923 199.203L184.19 201.309L188.121 278.997L192.534 290.009L233.62 287.944L234.276 274.704L199.621 277.856L195.923 199.2V199.203ZM286.669 256.659L300.259 287.238L312.869 287.758L264.413 194.257H251.148L246.397 286.904L256.226 286.57L257.207 259.402L286.669 256.656V256.659ZM111.129 51.7764L99.67 172.597L143.539 150.611L149.917 80.3122L111.142 51.7795L111.129 51.7764ZM253.108 104.69L254.426 149.212L212.675 156.257L212.36 168.287L264.252 156.774L264.088 93.8582L222.984 92.4932V78.0488L259.492 66.0128V57.766L216.597 66.5298L213.167 104.863L253.108 104.69ZM165.638 66.2019C165.323 66.7 158.879 155.879 158.605 159.675V159.713L192.651 160.75V150.098L169.736 149.577L170.552 127.756L198.871 128.431L199.202 116.389L172.028 116.051L174.985 79.253L203.303 78.9062L203.142 67.0468L165.638 66.2019ZM129.511 292.584L124.962 286.942L123.717 222.783L156.628 218.625L161.171 223.266L164.084 282.531L158.233 288.836L129.511 292.597V292.584ZM258.84 250.477L259.987 202.198L281.922 249.469L258.846 250.493L258.84 250.477ZM110.965 155.904L119.801 73.8938C119.827 73.8938 120.01 74.0073 120.331 74.1902C128.568 78.8526 142.398 86.7369 142.398 87.1404C142.398 87.6385 136.91 143.222 136.676 145.586L110.981 155.901L110.965 155.904Z" fill="#161412"/>
</svg>
