<svg width="54" height="54" viewBox="0 0 54 54" fill="none" xmlns="http://www.w3.org/2000/svg">
<path fill-rule="evenodd" clip-rule="evenodd" d="M27 0C41.9017 0 54 12.0983 54 27C54 41.9017 41.9017 54 27 54C12.0983 54 0 41.9017 0 27C0 12.0983 12.0983 0 27 0ZM27 10.125C22.4171 10.125 21.8424 10.1444 20.0424 10.2266C18.2463 10.3085 17.0196 10.5938 15.9461 11.0109C14.8365 11.4422 13.8954 12.0192 12.9573 12.9574C12.0191 13.8955 11.4421 14.8366 11.0108 15.9462C10.5937 17.0196 10.3085 18.2463 10.2265 20.0424C10.1444 21.8424 10.125 22.4171 10.125 27C10.125 31.5829 10.1444 32.1576 10.2265 33.9576C10.3085 35.7537 10.5937 36.9804 11.0108 38.0538C11.4421 39.1634 12.0191 40.1045 12.9573 41.0427C13.8954 41.9809 14.8365 42.5579 15.9461 42.9892C17.0196 43.4062 18.2463 43.6915 20.0424 43.7734C21.8424 43.8556 22.4171 43.875 27 43.875C31.5829 43.875 32.1576 43.8556 33.9576 43.7734C35.7537 43.6915 36.9804 43.4062 38.0538 42.9892C39.1634 42.5579 40.1045 41.9809 41.0427 41.0427C41.9809 40.1045 42.5579 39.1634 42.9892 38.0538C43.4062 36.9804 43.6915 35.7537 43.7734 33.9576C43.8556 32.1576 43.875 31.5829 43.875 27C43.875 22.4171 43.8556 21.8424 43.7734 20.0424C43.6915 18.2463 43.4062 17.0196 42.9892 15.9462C42.5579 14.8366 41.9809 13.8955 41.0427 12.9574C40.1045 12.0192 39.1634 11.4422 38.0538 11.0109C36.9804 10.5938 35.7537 10.3085 33.9576 10.2266C32.1576 10.1444 31.5829 10.125 27 10.125ZM27 13.1656C31.5058 13.1656 32.0395 13.1827 33.819 13.264C35.4643 13.3391 36.3577 13.6139 36.9523 13.845C37.7401 14.1511 38.3022 14.5168 38.8927 15.1073C39.4833 15.6978 39.8489 16.26 40.155 17.0477C40.3861 17.6423 40.661 18.5357 40.736 20.181C40.8172 21.9605 40.8344 22.4942 40.8344 27C40.8344 31.5058 40.8172 32.0395 40.736 33.819C40.661 35.4643 40.3861 36.3577 40.155 36.9523C39.8489 37.7401 39.4833 38.3022 38.8927 38.8927C38.3022 39.4833 37.7401 39.8489 36.9523 40.155C36.3577 40.3861 35.4643 40.661 33.819 40.736C32.0398 40.8172 31.5062 40.8344 27 40.8344C22.4938 40.8344 21.9603 40.8172 20.181 40.736C18.5357 40.661 17.6423 40.3861 17.0477 40.155C16.2599 39.8489 15.6978 39.4833 15.1072 38.8927C14.5167 38.3022 14.1511 37.7401 13.845 36.9523C13.6139 36.3577 13.339 35.4643 13.2639 33.819C13.1826 32.0395 13.1656 31.5058 13.1656 27C13.1656 22.4942 13.1826 21.9605 13.2639 20.181C13.339 18.5357 13.6139 17.6423 13.845 17.0477C14.1511 16.26 14.5167 15.6978 15.1072 15.1073C15.6978 14.5168 16.2599 14.1511 17.0477 13.845C17.6423 13.6139 18.5357 13.3391 20.181 13.264C21.9605 13.1827 22.4942 13.1656 27 13.1656ZM27 18.3345C22.2141 18.3345 18.3345 22.2141 18.3345 27C18.3345 31.7859 22.2141 35.6655 27 35.6655C31.7859 35.6655 35.6655 31.7859 35.6655 27C35.6655 22.2141 31.7859 18.3345 27 18.3345ZM27 32.625C23.8934 32.625 21.375 30.1066 21.375 27C21.375 23.8934 23.8934 21.375 27 21.375C30.1066 21.375 32.625 23.8934 32.625 27C32.625 30.1066 30.1066 32.625 27 32.625ZM38.033 17.9921C38.033 19.1105 37.1263 20.017 36.0079 20.017C34.8896 20.017 33.983 19.1105 33.983 17.9921C33.983 16.8737 34.8896 15.9671 36.0079 15.9671C37.1263 15.9671 38.033 16.8737 38.033 17.9921Z" fill="#005593"/>
</svg>
