<svg width="54" height="54" viewBox="0 0 54 54" fill="none" xmlns="http://www.w3.org/2000/svg">
<path d="M27.02 0C41.8696 0 53.9117 12.0421 53.9117 26.8918C53.9117 41.7414 41.8696 53.7836 27.02 53.7836C12.1703 53.7836 0.128174 41.7414 0.128174 26.8918C0.128174 12.0421 12.1703 0 27.02 0Z" fill="#005593"/>
<mask id="path-2-outside-1_72_101" maskUnits="userSpaceOnUse" x="9.42151" y="14.9033" width="35" height="28" fill="black">
<rect fill="white" x="9.42151" y="14.9033" width="35" height="28"/>
<path d="M21.5946 39.9534C32.6135 39.9534 38.6463 31.0855 38.6463 23.3931C38.6463 23.1435 38.6463 22.8893 38.6276 22.6397C39.8005 21.8137 40.8146 20.7972 41.6183 19.6263C40.5248 20.0983 39.3659 20.4069 38.179 20.543C39.4314 19.8169 40.3659 18.6732 40.8146 17.3253C39.637 18.0015 38.3519 18.4826 37.0107 18.7368C34.7397 16.395 30.9452 16.2815 28.534 18.4826C26.9779 19.9031 26.319 22.0225 26.8003 24.0421C21.9824 23.8061 17.4917 21.5959 14.4496 17.9607C12.8608 20.6202 13.6692 24.0194 16.3048 25.7303C15.3515 25.7031 14.4169 25.4535 13.5851 25.0042C13.5851 25.0269 13.5851 25.0541 13.5851 25.0768C13.5851 27.8452 15.5945 30.2323 18.3936 30.7815C17.5104 31.0129 16.5851 31.0492 15.6879 30.8813C16.473 33.2503 18.7207 34.875 21.2862 34.925C19.1646 36.5451 16.5431 37.4256 13.8468 37.421C13.3701 37.421 12.8935 37.3938 12.4215 37.3348C15.1505 39.0458 18.3422 39.9534 21.5946 39.9489"/>
</mask>
<path d="M38.6276 22.6397L37.4761 21.0045C36.9007 21.4096 36.5806 22.0873 36.6332 22.7891L38.6276 22.6397ZM41.6183 19.6263L43.2672 20.7581C43.7715 20.0235 43.729 19.0439 43.1629 18.3557C42.5968 17.6676 41.6438 17.4369 40.8257 17.79L41.6183 19.6263ZM38.179 20.543L37.1758 18.8128C36.3564 19.2879 35.9826 20.2727 36.2804 21.1718C36.5782 22.071 37.4659 22.6379 38.4069 22.53L38.179 20.543ZM40.8146 17.3253L42.7122 17.9569C42.9742 17.1696 42.7229 16.3023 42.0805 15.777C41.4382 15.2518 40.5382 15.1777 39.8186 15.5909L40.8146 17.3253ZM37.0107 18.7368L35.575 20.1291C36.0431 20.6118 36.7225 20.827 37.3831 20.7018L37.0107 18.7368ZM28.534 18.4826L27.1856 17.0055L27.1856 17.0055L28.534 18.4826ZM26.8003 24.0421L26.7024 26.0397C27.3309 26.0704 27.9372 25.8037 28.3391 25.3196C28.741 24.8355 28.8917 24.1904 28.7458 23.5784L26.8003 24.0421ZM14.4496 17.9607L15.9834 16.6772C15.5677 16.1804 14.9372 15.9158 14.2915 15.967C13.6458 16.0182 13.0648 16.3789 12.7326 16.935L14.4496 17.9607ZM16.3048 25.7303L16.2477 27.7295C17.1437 27.7551 17.9474 27.1813 18.2141 26.3255C18.4809 25.4697 18.1457 24.5409 17.3938 24.0528L16.3048 25.7303ZM13.5851 25.0042L14.5356 23.2445C13.9158 22.9097 13.1656 22.9257 12.5606 23.2865C11.9556 23.6473 11.5851 24.2998 11.5851 25.0042H13.5851ZM18.3936 30.7815L18.9006 32.7161C19.8028 32.4797 20.4218 31.6511 20.3926 30.7189C20.3634 29.7867 19.6938 28.9984 18.7786 28.8189L18.3936 30.7815ZM15.6879 30.8813L16.0558 28.9154C15.36 28.7852 14.6472 29.0325 14.1816 29.5657C13.7159 30.0989 13.5668 30.8385 13.7895 31.5104L15.6879 30.8813ZM21.2862 34.925L22.5 36.5145C23.176 35.9983 23.4515 35.111 23.1869 34.3027C22.9223 33.4944 22.1754 32.9419 21.3251 32.9253L21.2862 34.925ZM13.8468 37.421L13.8501 35.421H13.8468V37.421ZM12.4215 37.3348L12.6696 35.3503C11.7388 35.2339 10.8522 35.7801 10.5375 36.6637C10.2227 37.5474 10.5644 38.5311 11.3591 39.0293L12.4215 37.3348ZM21.5946 41.9534C33.8956 41.9534 40.6463 32.0037 40.6463 23.3931H36.6463C36.6463 30.1673 31.3313 37.9534 21.5946 37.9534V41.9534ZM40.6463 23.3931C40.6463 23.1565 40.6472 22.8271 40.622 22.4904L36.6332 22.7891C36.6453 22.9515 36.6463 23.1304 36.6463 23.3931H40.6463ZM39.7791 24.2749C41.1401 23.3165 42.3246 22.1313 43.2672 20.7581L39.9694 18.4944C39.3045 19.463 38.4609 20.3109 37.4761 21.0045L39.7791 24.2749ZM40.8257 17.79C39.9131 18.1839 38.9445 18.4421 37.9511 18.556L38.4069 22.53C39.7873 22.3716 41.1366 22.0126 42.4109 21.4625L40.8257 17.79ZM39.1822 22.2732C40.8502 21.3061 42.1071 19.775 42.7122 17.9569L38.9169 16.6938C38.6248 17.5714 38.0125 18.3277 37.1758 18.8128L39.1822 22.2732ZM39.8186 15.5909C38.8304 16.1584 37.7556 16.56 36.6384 16.7717L37.3831 20.7018C38.9482 20.4052 40.4435 19.8447 41.8105 19.0597L39.8186 15.5909ZM38.4465 17.3444C35.4215 14.2253 30.3939 14.0768 27.1856 17.0055L29.8823 19.9597C31.4965 18.4863 34.0578 18.5647 35.575 20.1291L38.4465 17.3444ZM27.1856 17.0055C25.1006 18.9088 24.2023 21.7681 24.8548 24.5057L28.7458 23.5784C28.4356 22.2769 28.8551 20.8974 29.8823 19.9597L27.1856 17.0055ZM26.8981 22.0445C22.626 21.8352 18.66 19.8756 15.9834 16.6772L12.9158 19.2442C16.3234 23.3162 21.3389 25.7769 26.7024 26.0397L26.8981 22.0445ZM12.7326 16.935C10.5811 20.5364 11.6963 25.1231 15.2158 27.4078L17.3938 24.0528C15.642 22.9156 15.1404 20.7039 16.1665 18.9864L12.7326 16.935ZM16.3619 23.7311C15.7183 23.7127 15.09 23.544 14.5356 23.2445L12.6346 26.7639C13.7437 27.363 14.9846 27.6934 16.2477 27.7295L16.3619 23.7311ZM11.5851 25.0042C11.5851 25.0042 11.5851 25.0043 11.5851 25.0043C11.5851 25.0044 11.5851 25.0044 11.5851 25.0044C11.5851 25.0045 11.5851 25.0045 11.5851 25.0046C11.5851 25.0046 11.5851 25.0047 11.5851 25.0047C11.5851 25.0048 11.5851 25.0048 11.5851 25.0048C11.5851 25.0049 11.5851 25.0049 11.5851 25.005C11.5851 25.005 11.5851 25.0051 11.5851 25.0051C11.5851 25.0052 11.5851 25.0052 11.5851 25.0053C11.5851 25.0053 11.5851 25.0053 11.5851 25.0054C11.5851 25.0054 11.5851 25.0055 11.5851 25.0055C11.5851 25.0056 11.5851 25.0056 11.5851 25.0057C11.5851 25.0057 11.5851 25.0057 11.5851 25.0058C11.5851 25.0058 11.5851 25.0059 11.5851 25.0059C11.5851 25.006 11.5851 25.006 11.5851 25.0061C11.5851 25.0061 11.5851 25.0061 11.5851 25.0062C11.5851 25.0062 11.5851 25.0063 11.5851 25.0063C11.5851 25.0064 11.5851 25.0064 11.5851 25.0065C11.5851 25.0065 11.5851 25.0065 11.5851 25.0066C11.5851 25.0066 11.5851 25.0067 11.5851 25.0067C11.5851 25.0068 11.5851 25.0068 11.5851 25.0069C11.5851 25.0069 11.5851 25.007 11.5851 25.007C11.5851 25.007 11.5851 25.0071 11.5851 25.0071C11.5851 25.0072 11.5851 25.0072 11.5851 25.0073C11.5851 25.0073 11.5851 25.0074 11.5851 25.0074C11.5851 25.0074 11.5851 25.0075 11.5851 25.0075C11.5851 25.0076 11.5851 25.0076 11.5851 25.0077C11.5851 25.0077 11.5851 25.0078 11.5851 25.0078C11.5851 25.0079 11.5851 25.0079 11.5851 25.0079C11.5851 25.008 11.5851 25.008 11.5851 25.0081C11.5851 25.0081 11.5851 25.0082 11.5851 25.0082C11.5851 25.0083 11.5851 25.0083 11.5851 25.0084C11.5851 25.0084 11.5851 25.0084 11.5851 25.0085C11.5851 25.0085 11.5851 25.0086 11.5851 25.0086C11.5851 25.0087 11.5851 25.0087 11.5851 25.0088C11.5851 25.0088 11.5851 25.0089 11.5851 25.0089C11.5851 25.0089 11.5851 25.009 11.5851 25.009C11.5851 25.0091 11.5851 25.0091 11.5851 25.0092C11.5851 25.0092 11.5851 25.0093 11.5851 25.0093C11.5851 25.0094 11.5851 25.0094 11.5851 25.0094C11.5851 25.0095 11.5851 25.0095 11.5851 25.0096C11.5851 25.0096 11.5851 25.0097 11.5851 25.0097C11.5851 25.0098 11.5851 25.0098 11.5851 25.0099C11.5851 25.0099 11.5851 25.0099 11.5851 25.01C11.5851 25.01 11.5851 25.0101 11.5851 25.0101C11.5851 25.0102 11.5851 25.0102 11.5851 25.0103C11.5851 25.0103 11.5851 25.0104 11.5851 25.0104C11.5851 25.0104 11.5851 25.0105 11.5851 25.0105C11.5851 25.0106 11.5851 25.0106 11.5851 25.0107C11.5851 25.0107 11.5851 25.0108 11.5851 25.0108C11.5851 25.0109 11.5851 25.0109 11.5851 25.011C11.5851 25.011 11.5851 25.011 11.5851 25.0111C11.5851 25.0111 11.5851 25.0112 11.5851 25.0112C11.5851 25.0113 11.5851 25.0113 11.5851 25.0114C11.5851 25.0114 11.5851 25.0115 11.5851 25.0115C11.5851 25.0115 11.5851 25.0116 11.5851 25.0116C11.5851 25.0117 11.5851 25.0117 11.5851 25.0118C11.5851 25.0118 11.5851 25.0119 11.5851 25.0119C11.5851 25.012 11.5851 25.012 11.5851 25.0121C11.5851 25.0121 11.5851 25.0121 11.5851 25.0122C11.5851 25.0122 11.5851 25.0123 11.5851 25.0123C11.5851 25.0124 11.5851 25.0124 11.5851 25.0125C11.5851 25.0125 11.5851 25.0126 11.5851 25.0126C11.5851 25.0127 11.5851 25.0127 11.5851 25.0127C11.5851 25.0128 11.5851 25.0128 11.5851 25.0129C11.5851 25.0129 11.5851 25.013 11.5851 25.013C11.5851 25.0131 11.5851 25.0131 11.5851 25.0132C11.5851 25.0132 11.5851 25.0133 11.5851 25.0133C11.5851 25.0134 11.5851 25.0134 11.5851 25.0134C11.5851 25.0135 11.5851 25.0135 11.5851 25.0136C11.5851 25.0136 11.5851 25.0137 11.5851 25.0137C11.5851 25.0138 11.5851 25.0138 11.5851 25.0139C11.5851 25.0139 11.5851 25.014 11.5851 25.014C11.5851 25.014 11.5851 25.0141 11.5851 25.0141C11.5851 25.0142 11.5851 25.0142 11.5851 25.0143C11.5851 25.0143 11.5851 25.0144 11.5851 25.0144C11.5851 25.0145 11.5851 25.0145 11.5851 25.0146C11.5851 25.0146 11.5851 25.0147 11.5851 25.0147C11.5851 25.0147 11.5851 25.0148 11.5851 25.0148C11.5851 25.0149 11.5851 25.0149 11.5851 25.015C11.5851 25.015 11.5851 25.0151 11.5851 25.0151C11.5851 25.0152 11.5851 25.0152 11.5851 25.0153C11.5851 25.0153 11.5851 25.0154 11.5851 25.0154C11.5851 25.0154 11.5851 25.0155 11.5851 25.0155C11.5851 25.0156 11.5851 25.0156 11.5851 25.0157C11.5851 25.0157 11.5851 25.0158 11.5851 25.0158C11.5851 25.0159 11.5851 25.0159 11.5851 25.016C11.5851 25.016 11.5851 25.0161 11.5851 25.0161C11.5851 25.0161 11.5851 25.0162 11.5851 25.0162C11.5851 25.0163 11.5851 25.0163 11.5851 25.0164C11.5851 25.0164 11.5851 25.0165 11.5851 25.0165C11.5851 25.0166 11.5851 25.0166 11.5851 25.0167C11.5851 25.0167 11.5851 25.0168 11.5851 25.0168C11.5851 25.0168 11.5851 25.0169 11.5851 25.0169C11.5851 25.017 11.5851 25.017 11.5851 25.0171C11.5851 25.0171 11.5851 25.0172 11.5851 25.0172C11.5851 25.0173 11.5851 25.0173 11.5851 25.0174C11.5851 25.0174 11.5851 25.0175 11.5851 25.0175C11.5851 25.0176 11.5851 25.0176 11.5851 25.0176C11.5851 25.0177 11.5851 25.0177 11.5851 25.0178C11.5851 25.0178 11.5851 25.0179 11.5851 25.0179C11.5851 25.018 11.5851 25.018 11.5851 25.0181C11.5851 25.0181 11.5851 25.0182 11.5851 25.0182C11.5851 25.0183 11.5851 25.0183 11.5851 25.0184C11.5851 25.0184 11.5851 25.0184 11.5851 25.0185C11.5851 25.0185 11.5851 25.0186 11.5851 25.0186C11.5851 25.0187 11.5851 25.0187 11.5851 25.0188C11.5851 25.0188 11.5851 25.0189 11.5851 25.0189C11.5851 25.019 11.5851 25.019 11.5851 25.0191C11.5851 25.0191 11.5851 25.0192 11.5851 25.0192C11.5851 25.0193 11.5851 25.0193 11.5851 25.0193C11.5851 25.0194 11.5851 25.0194 11.5851 25.0195C11.5851 25.0195 11.5851 25.0196 11.5851 25.0196C11.5851 25.0197 11.5851 25.0197 11.5851 25.0198C11.5851 25.0198 11.5851 25.0199 11.5851 25.0199C11.5851 25.02 11.5851 25.02 11.5851 25.0201C11.5851 25.0201 11.5851 25.0202 11.5851 25.0202C11.5851 25.0202 11.5851 25.0203 11.5851 25.0203C11.5851 25.0204 11.5851 25.0204 11.5851 25.0205C11.5851 25.0205 11.5851 25.0206 11.5851 25.0206C11.5851 25.0207 11.5851 25.0207 11.5851 25.0208C11.5851 25.0208 11.5851 25.0209 11.5851 25.0209C11.5851 25.021 11.5851 25.021 11.5851 25.0211C11.5851 25.0211 11.5851 25.0211 11.5851 25.0212C11.5851 25.0212 11.5851 25.0213 11.5851 25.0213C11.5851 25.0214 11.5851 25.0214 11.5851 25.0215C11.5851 25.0215 11.5851 25.0216 11.5851 25.0216C11.5851 25.0217 11.5851 25.0217 11.5851 25.0218C11.5851 25.0218 11.5851 25.0219 11.5851 25.0219C11.5851 25.022 11.5851 25.022 11.5851 25.0221C11.5851 25.0221 11.5851 25.0221 11.5851 25.0222C11.5851 25.0222 11.5851 25.0223 11.5851 25.0223C11.5851 25.0224 11.5851 25.0224 11.5851 25.0225C11.5851 25.0225 11.5851 25.0226 11.5851 25.0226C11.5851 25.0227 11.5851 25.0227 11.5851 25.0228C11.5851 25.0228 11.5851 25.0229 11.5851 25.0229C11.5851 25.023 11.5851 25.023 11.5851 25.0231C11.5851 25.0231 11.5851 25.0232 11.5851 25.0232C11.5851 25.0232 11.5851 25.0233 11.5851 25.0233C11.5851 25.0234 11.5851 25.0234 11.5851 25.0235C11.5851 25.0235 11.5851 25.0236 11.5851 25.0236C11.5851 25.0237 11.5851 25.0237 11.5851 25.0238C11.5851 25.0238 11.5851 25.0239 11.5851 25.0239C11.5851 25.024 11.5851 25.024 11.5851 25.0241C11.5851 25.0241 11.5851 25.0242 11.5851 25.0242C11.5851 25.0243 11.5851 25.0243 11.5851 25.0243C11.5851 25.0244 11.5851 25.0244 11.5851 25.0245C11.5851 25.0245 11.5851 25.0246 11.5851 25.0246C11.5851 25.0247 11.5851 25.0247 11.5851 25.0248C11.5851 25.0248 11.5851 25.0249 11.5851 25.0249C11.5851 25.025 11.5851 25.025 11.5851 25.0251C11.5851 25.0251 11.5851 25.0252 11.5851 25.0252C11.5851 25.0253 11.5851 25.0253 11.5851 25.0254C11.5851 25.0254 11.5851 25.0255 11.5851 25.0255C11.5851 25.0255 11.5851 25.0256 11.5851 25.0256C11.5851 25.0257 11.5851 25.0257 11.5851 25.0258C11.5851 25.0258 11.5851 25.0259 11.5851 25.0259C11.5851 25.026 11.5851 25.026 11.5851 25.0261C11.5851 25.0261 11.5851 25.0262 11.5851 25.0262C11.5851 25.0263 11.5851 25.0263 11.5851 25.0264C11.5851 25.0264 11.5851 25.0265 11.5851 25.0265C11.5851 25.0266 11.5851 25.0266 11.5851 25.0267C11.5851 25.0267 11.5851 25.0267 11.5851 25.0268C11.5851 25.0268 11.5851 25.0269 11.5851 25.0269C11.5851 25.027 11.5851 25.027 11.5851 25.0271C11.5851 25.0271 11.5851 25.0272 11.5851 25.0272C11.5851 25.0273 11.5851 25.0273 11.5851 25.0274C11.5851 25.0274 11.5851 25.0275 11.5851 25.0275C11.5851 25.0276 11.5851 25.0276 11.5851 25.0277C11.5851 25.0277 11.5851 25.0278 11.5851 25.0278C11.5851 25.0279 11.5851 25.0279 11.5851 25.028C11.5851 25.028 11.5851 25.0281 11.5851 25.0281C11.5851 25.0281 11.5851 25.0282 11.5851 25.0282C11.5851 25.0283 11.5851 25.0283 11.5851 25.0284C11.5851 25.0284 11.5851 25.0285 11.5851 25.0285C11.5851 25.0286 11.5851 25.0286 11.5851 25.0287C11.5851 25.0287 11.5851 25.0288 11.5851 25.0288C11.5851 25.0289 11.5851 25.0289 11.5851 25.029C11.5851 25.029 11.5851 25.0291 11.5851 25.0291C11.5851 25.0292 11.5851 25.0292 11.5851 25.0293C11.5851 25.0293 11.5851 25.0294 11.5851 25.0294C11.5851 25.0295 11.5851 25.0295 11.5851 25.0295C11.5851 25.0296 11.5851 25.0296 11.5851 25.0297C11.5851 25.0297 11.5851 25.0298 11.5851 25.0298C11.5851 25.0299 11.5851 25.0299 11.5851 25.03C11.5851 25.03 11.5851 25.0301 11.5851 25.0301C11.5851 25.0302 11.5851 25.0302 11.5851 25.0303C11.5851 25.0303 11.5851 25.0304 11.5851 25.0304C11.5851 25.0305 11.5851 25.0305 11.5851 25.0306C11.5851 25.0306 11.5851 25.0307 11.5851 25.0307C11.5851 25.0308 11.5851 25.0308 11.5851 25.0309C11.5851 25.0309 11.5851 25.031 11.5851 25.031C11.5851 25.0311 11.5851 25.0311 11.5851 25.0311C11.5851 25.0312 11.5851 25.0312 11.5851 25.0313C11.5851 25.0313 11.5851 25.0314 11.5851 25.0314C11.5851 25.0315 11.5851 25.0315 11.5851 25.0316C11.5851 25.0316 11.5851 25.0317 11.5851 25.0317C11.5851 25.0318 11.5851 25.0318 11.5851 25.0319C11.5851 25.0319 11.5851 25.032 11.5851 25.032C11.5851 25.0321 11.5851 25.0321 11.5851 25.0322C11.5851 25.0322 11.5851 25.0323 11.5851 25.0323C11.5851 25.0324 11.5851 25.0324 11.5851 25.0325C11.5851 25.0325 11.5851 25.0326 11.5851 25.0326C11.5851 25.0327 11.5851 25.0327 11.5851 25.0327C11.5851 25.0328 11.5851 25.0328 11.5851 25.0329C11.5851 25.0329 11.5851 25.033 11.5851 25.033C11.5851 25.0331 11.5851 25.0331 11.5851 25.0332C11.5851 25.0332 11.5851 25.0333 11.5851 25.0333C11.5851 25.0334 11.5851 25.0334 11.5851 25.0335C11.5851 25.0335 11.5851 25.0336 11.5851 25.0336C11.5851 25.0337 11.5851 25.0337 11.5851 25.0338C11.5851 25.0338 11.5851 25.0339 11.5851 25.0339C11.5851 25.034 11.5851 25.034 11.5851 25.0341C11.5851 25.0341 11.5851 25.0342 11.5851 25.0342C11.5851 25.0343 11.5851 25.0343 11.5851 25.0344C11.5851 25.0344 11.5851 25.0344 11.5851 25.0345C11.5851 25.0345 11.5851 25.0346 11.5851 25.0346C11.5851 25.0347 11.5851 25.0347 11.5851 25.0348C11.5851 25.0348 11.5851 25.0349 11.5851 25.0349C11.5851 25.035 11.5851 25.035 11.5851 25.0351C11.5851 25.0351 11.5851 25.0352 11.5851 25.0352C11.5851 25.0353 11.5851 25.0353 11.5851 25.0354C11.5851 25.0354 11.5851 25.0355 11.5851 25.0355C11.5851 25.0356 11.5851 25.0356 11.5851 25.0357C11.5851 25.0357 11.5851 25.0358 11.5851 25.0358C11.5851 25.0359 11.5851 25.0359 11.5851 25.036C11.5851 25.036 11.5851 25.0361 11.5851 25.0361C11.5851 25.0362 11.5851 25.0362 11.5851 25.0363C11.5851 25.0363 11.5851 25.0363 11.5851 25.0364C11.5851 25.0364 11.5851 25.0365 11.5851 25.0365C11.5851 25.0366 11.5851 25.0366 11.5851 25.0367C11.5851 25.0367 11.5851 25.0368 11.5851 25.0368C11.5851 25.0369 11.5851 25.0369 11.5851 25.037C11.5851 25.037 11.5851 25.0371 11.5851 25.0371C11.5851 25.0372 11.5851 25.0372 11.5851 25.0373C11.5851 25.0373 11.5851 25.0374 11.5851 25.0374C11.5851 25.0375 11.5851 25.0375 11.5851 25.0376C11.5851 25.0376 11.5851 25.0377 11.5851 25.0377C11.5851 25.0378 11.5851 25.0378 11.5851 25.0379C11.5851 25.0379 11.5851 25.038 11.5851 25.038C11.5851 25.0381 11.5851 25.0381 11.5851 25.0381C11.5851 25.0382 11.5851 25.0382 11.5851 25.0383C11.5851 25.0383 11.5851 25.0384 11.5851 25.0384C11.5851 25.0385 11.5851 25.0385 11.5851 25.0386C11.5851 25.0386 11.5851 25.0387 11.5851 25.0387C11.5851 25.0388 11.5851 25.0388 11.5851 25.0389C11.5851 25.0389 11.5851 25.039 11.5851 25.039C11.5851 25.0391 11.5851 25.0391 11.5851 25.0392C11.5851 25.0392 11.5851 25.0393 11.5851 25.0393C11.5851 25.0394 11.5851 25.0394 11.5851 25.0395C11.5851 25.0395 11.5851 25.0396 11.5851 25.0396C11.5851 25.0397 11.5851 25.0397 11.5851 25.0398C11.5851 25.0398 11.5851 25.0399 11.5851 25.0399C11.5851 25.04 11.5851 25.04 11.5851 25.0401C11.5851 25.0401 11.5851 25.0401 11.5851 25.0402C11.5851 25.0402 11.5851 25.0403 11.5851 25.0403C11.5851 25.0404 11.5851 25.0404 11.5851 25.0405C11.5851 25.0405 11.5851 25.0406 11.5851 25.0406C11.5851 25.0407 11.5851 25.0407 11.5851 25.0408C11.5851 25.0408 11.5851 25.0409 11.5851 25.0409C11.5851 25.041 11.5851 25.041 11.5851 25.0411C11.5851 25.0411 11.5851 25.0412 11.5851 25.0412C11.5851 25.0413 11.5851 25.0413 11.5851 25.0414C11.5851 25.0414 11.5851 25.0415 11.5851 25.0415C11.5851 25.0416 11.5851 25.0416 11.5851 25.0417C11.5851 25.0417 11.5851 25.0418 11.5851 25.0418C11.5851 25.0419 11.5851 25.0419 11.5851 25.042C11.5851 25.042 11.5851 25.042 11.5851 25.0421C11.5851 25.0421 11.5851 25.0422 11.5851 25.0422C11.5851 25.0423 11.5851 25.0423 11.5851 25.0424C11.5851 25.0424 11.5851 25.0425 11.5851 25.0425C11.5851 25.0426 11.5851 25.0426 11.5851 25.0427C11.5851 25.0427 11.5851 25.0428 11.5851 25.0428C11.5851 25.0429 11.5851 25.0429 11.5851 25.043C11.5851 25.043 11.5851 25.0431 11.5851 25.0431C11.5851 25.0432 11.5851 25.0432 11.5851 25.0433C11.5851 25.0433 11.5851 25.0434 11.5851 25.0434C11.5851 25.0435 11.5851 25.0435 11.5851 25.0436C11.5851 25.0436 11.5851 25.0437 11.5851 25.0437C11.5851 25.0438 11.5851 25.0438 11.5851 25.0439C11.5851 25.0439 11.5851 25.044 11.5851 25.044C11.5851 25.044 11.5851 25.0441 11.5851 25.0441C11.5851 25.0442 11.5851 25.0442 11.5851 25.0443C11.5851 25.0443 11.5851 25.0444 11.5851 25.0444C11.5851 25.0445 11.5851 25.0445 11.5851 25.0446C11.5851 25.0446 11.5851 25.0447 11.5851 25.0447C11.5851 25.0448 11.5851 25.0448 11.5851 25.0449C11.5851 25.0449 11.5851 25.045 11.5851 25.045C11.5851 25.0451 11.5851 25.0451 11.5851 25.0452C11.5851 25.0452 11.5851 25.0453 11.5851 25.0453C11.5851 25.0454 11.5851 25.0454 11.5851 25.0455C11.5851 25.0455 11.5851 25.0456 11.5851 25.0456C11.5851 25.0457 11.5851 25.0457 11.5851 25.0458C11.5851 25.0458 11.5851 25.0458 11.5851 25.0459C11.5851 25.0459 11.5851 25.046 11.5851 25.046C11.5851 25.0461 11.5851 25.0461 11.5851 25.0462C11.5851 25.0462 11.5851 25.0463 11.5851 25.0463C11.5851 25.0464 11.5851 25.0464 11.5851 25.0465C11.5851 25.0465 11.5851 25.0466 11.5851 25.0466C11.5851 25.0467 11.5851 25.0467 11.5851 25.0468C11.5851 25.0468 11.5851 25.0469 11.5851 25.0469C11.5851 25.047 11.5851 25.047 11.5851 25.0471C11.5851 25.0471 11.5851 25.0472 11.5851 25.0472C11.5851 25.0473 11.5851 25.0473 11.5851 25.0474C11.5851 25.0474 11.5851 25.0475 11.5851 25.0475C11.5851 25.0476 11.5851 25.0476 11.5851 25.0476C11.5851 25.0477 11.5851 25.0477 11.5851 25.0478C11.5851 25.0478 11.5851 25.0479 11.5851 25.0479C11.5851 25.048 11.5851 25.048 11.5851 25.0481C11.5851 25.0481 11.5851 25.0482 11.5851 25.0482C11.5851 25.0483 11.5851 25.0483 11.5851 25.0484C11.5851 25.0484 11.5851 25.0485 11.5851 25.0485C11.5851 25.0486 11.5851 25.0486 11.5851 25.0487C11.5851 25.0487 11.5851 25.0488 11.5851 25.0488C11.5851 25.0489 11.5851 25.0489 11.5851 25.049C11.5851 25.049 11.5851 25.0491 11.5851 25.0491C11.5851 25.0492 11.5851 25.0492 11.5851 25.0493C11.5851 25.0493 11.5851 25.0493 11.5851 25.0494C11.5851 25.0494 11.5851 25.0495 11.5851 25.0495C11.5851 25.0496 11.5851 25.0496 11.5851 25.0497C11.5851 25.0497 11.5851 25.0498 11.5851 25.0498C11.5851 25.0499 11.5851 25.0499 11.5851 25.05C11.5851 25.05 11.5851 25.0501 11.5851 25.0501C11.5851 25.0502 11.5851 25.0502 11.5851 25.0503C11.5851 25.0503 11.5851 25.0504 11.5851 25.0504C11.5851 25.0505 11.5851 25.0505 11.5851 25.0506C11.5851 25.0506 11.5851 25.0507 11.5851 25.0507C11.5851 25.0508 11.5851 25.0508 11.5851 25.0508C11.5851 25.0509 11.5851 25.0509 11.5851 25.051C11.5851 25.051 11.5851 25.0511 11.5851 25.0511C11.5851 25.0512 11.5851 25.0512 11.5851 25.0513C11.5851 25.0513 11.5851 25.0514 11.5851 25.0514C11.5851 25.0515 11.5851 25.0515 11.5851 25.0516C11.5851 25.0516 11.5851 25.0517 11.5851 25.0517C11.5851 25.0518 11.5851 25.0518 11.5851 25.0519C11.5851 25.0519 11.5851 25.052 11.5851 25.052C11.5851 25.0521 11.5851 25.0521 11.5851 25.0522C11.5851 25.0522 11.5851 25.0523 11.5851 25.0523C11.5851 25.0523 11.5851 25.0524 11.5851 25.0524C11.5851 25.0525 11.5851 25.0525 11.5851 25.0526C11.5851 25.0526 11.5851 25.0527 11.5851 25.0527C11.5851 25.0528 11.5851 25.0528 11.5851 25.0529C11.5851 25.0529 11.5851 25.053 11.5851 25.053C11.5851 25.0531 11.5851 25.0531 11.5851 25.0532C11.5851 25.0532 11.5851 25.0533 11.5851 25.0533C11.5851 25.0534 11.5851 25.0534 11.5851 25.0535C11.5851 25.0535 11.5851 25.0536 11.5851 25.0536C11.5851 25.0537 11.5851 25.0537 11.5851 25.0537C11.5851 25.0538 11.5851 25.0538 11.5851 25.0539C11.5851 25.0539 11.5851 25.054 11.5851 25.054C11.5851 25.0541 11.5851 25.0541 11.5851 25.0542C11.5851 25.0542 11.5851 25.0543 11.5851 25.0543C11.5851 25.0544 11.5851 25.0544 11.5851 25.0545C11.5851 25.0545 11.5851 25.0546 11.5851 25.0546C11.5851 25.0547 11.5851 25.0547 11.5851 25.0548C11.5851 25.0548 11.5851 25.0549 11.5851 25.0549C11.5851 25.055 11.5851 25.055 11.5851 25.055C11.5851 25.0551 11.5851 25.0551 11.5851 25.0552C11.5851 25.0552 11.5851 25.0553 11.5851 25.0553C11.5851 25.0554 11.5851 25.0554 11.5851 25.0555C11.5851 25.0555 11.5851 25.0556 11.5851 25.0556C11.5851 25.0557 11.5851 25.0557 11.5851 25.0558C11.5851 25.0558 11.5851 25.0559 11.5851 25.0559C11.5851 25.056 11.5851 25.056 11.5851 25.0561C11.5851 25.0561 11.5851 25.0562 11.5851 25.0562C11.5851 25.0562 11.5851 25.0563 11.5851 25.0563C11.5851 25.0564 11.5851 25.0564 11.5851 25.0565C11.5851 25.0565 11.5851 25.0566 11.5851 25.0566C11.5851 25.0567 11.5851 25.0567 11.5851 25.0568C11.5851 25.0568 11.5851 25.0569 11.5851 25.0569C11.5851 25.057 11.5851 25.057 11.5851 25.0571C11.5851 25.0571 11.5851 25.0572 11.5851 25.0572C11.5851 25.0573 11.5851 25.0573 11.5851 25.0573C11.5851 25.0574 11.5851 25.0574 11.5851 25.0575C11.5851 25.0575 11.5851 25.0576 11.5851 25.0576C11.5851 25.0577 11.5851 25.0577 11.5851 25.0578C11.5851 25.0578 11.5851 25.0579 11.5851 25.0579C11.5851 25.058 11.5851 25.058 11.5851 25.0581C11.5851 25.0581 11.5851 25.0582 11.5851 25.0582C11.5851 25.0583 11.5851 25.0583 11.5851 25.0584C11.5851 25.0584 11.5851 25.0584 11.5851 25.0585C11.5851 25.0585 11.5851 25.0586 11.5851 25.0586C11.5851 25.0587 11.5851 25.0587 11.5851 25.0588C11.5851 25.0588 11.5851 25.0589 11.5851 25.0589C11.5851 25.059 11.5851 25.059 11.5851 25.0591C11.5851 25.0591 11.5851 25.0592 11.5851 25.0592C11.5851 25.0593 11.5851 25.0593 11.5851 25.0594C11.5851 25.0594 11.5851 25.0594 11.5851 25.0595C11.5851 25.0595 11.5851 25.0596 11.5851 25.0596C11.5851 25.0597 11.5851 25.0597 11.5851 25.0598C11.5851 25.0598 11.5851 25.0599 11.5851 25.0599C11.5851 25.06 11.5851 25.06 11.5851 25.0601C11.5851 25.0601 11.5851 25.0602 11.5851 25.0602C11.5851 25.0603 11.5851 25.0603 11.5851 25.0604C11.5851 25.0604 11.5851 25.0604 11.5851 25.0605C11.5851 25.0605 11.5851 25.0606 11.5851 25.0606C11.5851 25.0607 11.5851 25.0607 11.5851 25.0608C11.5851 25.0608 11.5851 25.0609 11.5851 25.0609C11.5851 25.061 11.5851 25.061 11.5851 25.0611C11.5851 25.0611 11.5851 25.0612 11.5851 25.0612C11.5851 25.0613 11.5851 25.0613 11.5851 25.0613C11.5851 25.0614 11.5851 25.0614 11.5851 25.0615C11.5851 25.0615 11.5851 25.0616 11.5851 25.0616C11.5851 25.0617 11.5851 25.0617 11.5851 25.0618C11.5851 25.0618 11.5851 25.0619 11.5851 25.0619C11.5851 25.062 11.5851 25.062 11.5851 25.0621C11.5851 25.0621 11.5851 25.0622 11.5851 25.0622C11.5851 25.0622 11.5851 25.0623 11.5851 25.0623C11.5851 25.0624 11.5851 25.0624 11.5851 25.0625C11.5851 25.0625 11.5851 25.0626 11.5851 25.0626C11.5851 25.0627 11.5851 25.0627 11.5851 25.0628C11.5851 25.0628 11.5851 25.0629 11.5851 25.0629C11.5851 25.063 11.5851 25.063 11.5851 25.063C11.5851 25.0631 11.5851 25.0631 11.5851 25.0632C11.5851 25.0632 11.5851 25.0633 11.5851 25.0633C11.5851 25.0634 11.5851 25.0634 11.5851 25.0635C11.5851 25.0635 11.5851 25.0636 11.5851 25.0636C11.5851 25.0637 11.5851 25.0637 11.5851 25.0638C11.5851 25.0638 11.5851 25.0638 11.5851 25.0639C11.5851 25.0639 11.5851 25.064 11.5851 25.064C11.5851 25.0641 11.5851 25.0641 11.5851 25.0642C11.5851 25.0642 11.5851 25.0643 11.5851 25.0643C11.5851 25.0644 11.5851 25.0644 11.5851 25.0645C11.5851 25.0645 11.5851 25.0646 11.5851 25.0646C11.5851 25.0646 11.5851 25.0647 11.5851 25.0647C11.5851 25.0648 11.5851 25.0648 11.5851 25.0649C11.5851 25.0649 11.5851 25.065 11.5851 25.065C11.5851 25.0651 11.5851 25.0651 11.5851 25.0652C11.5851 25.0652 11.5851 25.0653 11.5851 25.0653C11.5851 25.0653 11.5851 25.0654 11.5851 25.0654C11.5851 25.0655 11.5851 25.0655 11.5851 25.0656C11.5851 25.0656 11.5851 25.0657 11.5851 25.0657C11.5851 25.0658 11.5851 25.0658 11.5851 25.0659C11.5851 25.0659 11.5851 25.066 11.5851 25.066C11.5851 25.066 11.5851 25.0661 11.5851 25.0661C11.5851 25.0662 11.5851 25.0662 11.5851 25.0663C11.5851 25.0663 11.5851 25.0664 11.5851 25.0664C11.5851 25.0665 11.5851 25.0665 11.5851 25.0666C11.5851 25.0666 11.5851 25.0667 11.5851 25.0667C11.5851 25.0667 11.5851 25.0668 11.5851 25.0668C11.5851 25.0669 11.5851 25.0669 11.5851 25.067C11.5851 25.067 11.5851 25.0671 11.5851 25.0671C11.5851 25.0672 11.5851 25.0672 11.5851 25.0673C11.5851 25.0673 11.5851 25.0674 11.5851 25.0674C11.5851 25.0674 11.5851 25.0675 11.5851 25.0675C11.5851 25.0676 11.5851 25.0676 11.5851 25.0677C11.5851 25.0677 11.5851 25.0678 11.5851 25.0678C11.5851 25.0679 11.5851 25.0679 11.5851 25.068C11.5851 25.068 11.5851 25.068 11.5851 25.0681C11.5851 25.0681 11.5851 25.0682 11.5851 25.0682C11.5851 25.0683 11.5851 25.0683 11.5851 25.0684C11.5851 25.0684 11.5851 25.0685 11.5851 25.0685C11.5851 25.0686 11.5851 25.0686 11.5851 25.0686C11.5851 25.0687 11.5851 25.0687 11.5851 25.0688C11.5851 25.0688 11.5851 25.0689 11.5851 25.0689C11.5851 25.069 11.5851 25.069 11.5851 25.0691C11.5851 25.0691 11.5851 25.0692 11.5851 25.0692C11.5851 25.0692 11.5851 25.0693 11.5851 25.0693C11.5851 25.0694 11.5851 25.0694 11.5851 25.0695C11.5851 25.0695 11.5851 25.0696 11.5851 25.0696C11.5851 25.0697 11.5851 25.0697 11.5851 25.0698C11.5851 25.0698 11.5851 25.0698 11.5851 25.0699C11.5851 25.0699 11.5851 25.07 11.5851 25.07C11.5851 25.0701 11.5851 25.0701 11.5851 25.0702C11.5851 25.0702 11.5851 25.0703 11.5851 25.0703C11.5851 25.0703 11.5851 25.0704 11.5851 25.0704C11.5851 25.0705 11.5851 25.0705 11.5851 25.0706C11.5851 25.0706 11.5851 25.0707 11.5851 25.0707C11.5851 25.0708 11.5851 25.0708 11.5851 25.0709C11.5851 25.0709 11.5851 25.0709 11.5851 25.071C11.5851 25.071 11.5851 25.0711 11.5851 25.0711C11.5851 25.0712 11.5851 25.0712 11.5851 25.0713C11.5851 25.0713 11.5851 25.0714 11.5851 25.0714C11.5851 25.0714 11.5851 25.0715 11.5851 25.0715C11.5851 25.0716 11.5851 25.0716 11.5851 25.0717C11.5851 25.0717 11.5851 25.0718 11.5851 25.0718C11.5851 25.0719 11.5851 25.0719 11.5851 25.0719C11.5851 25.072 11.5851 25.072 11.5851 25.0721C11.5851 25.0721 11.5851 25.0722 11.5851 25.0722C11.5851 25.0723 11.5851 25.0723 11.5851 25.0724C11.5851 25.0724 11.5851 25.0724 11.5851 25.0725C11.5851 25.0725 11.5851 25.0726 11.5851 25.0726C11.5851 25.0727 11.5851 25.0727 11.5851 25.0728C11.5851 25.0728 11.5851 25.0729 11.5851 25.0729C11.5851 25.0729 11.5851 25.073 11.5851 25.073C11.5851 25.0731 11.5851 25.0731 11.5851 25.0732C11.5851 25.0732 11.5851 25.0733 11.5851 25.0733C11.5851 25.0734 11.5851 25.0734 11.5851 25.0734C11.5851 25.0735 11.5851 25.0735 11.5851 25.0736C11.5851 25.0736 11.5851 25.0737 11.5851 25.0737C11.5851 25.0738 11.5851 25.0738 11.5851 25.0738C11.5851 25.0739 11.5851 25.0739 11.5851 25.074C11.5851 25.074 11.5851 25.0741 11.5851 25.0741C11.5851 25.0742 11.5851 25.0742 11.5851 25.0743C11.5851 25.0743 11.5851 25.0743 11.5851 25.0744C11.5851 25.0744 11.5851 25.0745 11.5851 25.0745C11.5851 25.0746 11.5851 25.0746 11.5851 25.0747C11.5851 25.0747 11.5851 25.0747 11.5851 25.0748C11.5851 25.0748 11.5851 25.0749 11.5851 25.0749C11.5851 25.075 11.5851 25.075 11.5851 25.0751C11.5851 25.0751 11.5851 25.0751 11.5851 25.0752C11.5851 25.0752 11.5851 25.0753 11.5851 25.0753C11.5851 25.0754 11.5851 25.0754 11.5851 25.0755C11.5851 25.0755 11.5851 25.0756 11.5851 25.0756C11.5851 25.0756 11.5851 25.0757 11.5851 25.0757C11.5851 25.0758 11.5851 25.0758 11.5851 25.0759C11.5851 25.0759 11.5851 25.076 11.5851 25.076C11.5851 25.076 11.5851 25.0761 11.5851 25.0761C11.5851 25.0762 11.5851 25.0762 11.5851 25.0763C11.5851 25.0763 11.5851 25.0764 11.5851 25.0764C11.5851 25.0764 11.5851 25.0765 11.5851 25.0765C11.5851 25.0766 11.5851 25.0766 11.5851 25.0767C11.5851 25.0767 11.5851 25.0768 11.5851 25.0768H15.5851C15.5851 25.0768 15.5851 25.0767 15.5851 25.0767C15.5851 25.0766 15.5851 25.0766 15.5851 25.0765C15.5851 25.0765 15.5851 25.0764 15.5851 25.0764C15.5851 25.0764 15.5851 25.0763 15.5851 25.0763C15.5851 25.0762 15.5851 25.0762 15.5851 25.0761C15.5851 25.0761 15.5851 25.076 15.5851 25.076C15.5851 25.076 15.5851 25.0759 15.5851 25.0759C15.5851 25.0758 15.5851 25.0758 15.5851 25.0757C15.5851 25.0757 15.5851 25.0756 15.5851 25.0756C15.5851 25.0756 15.5851 25.0755 15.5851 25.0755C15.5851 25.0754 15.5851 25.0754 15.5851 25.0753C15.5851 25.0753 15.5851 25.0752 15.5851 25.0752C15.5851 25.0751 15.5851 25.0751 15.5851 25.0751C15.5851 25.075 15.5851 25.075 15.5851 25.0749C15.5851 25.0749 15.5851 25.0748 15.5851 25.0748C15.5851 25.0747 15.5851 25.0747 15.5851 25.0747C15.5851 25.0746 15.5851 25.0746 15.5851 25.0745C15.5851 25.0745 15.5851 25.0744 15.5851 25.0744C15.5851 25.0743 15.5851 25.0743 15.5851 25.0743C15.5851 25.0742 15.5851 25.0742 15.5851 25.0741C15.5851 25.0741 15.5851 25.074 15.5851 25.074C15.5851 25.0739 15.5851 25.0739 15.5851 25.0738C15.5851 25.0738 15.5851 25.0738 15.5851 25.0737C15.5851 25.0737 15.5851 25.0736 15.5851 25.0736C15.5851 25.0735 15.5851 25.0735 15.5851 25.0734C15.5851 25.0734 15.5851 25.0734 15.5851 25.0733C15.5851 25.0733 15.5851 25.0732 15.5851 25.0732C15.5851 25.0731 15.5851 25.0731 15.5851 25.073C15.5851 25.073 15.5851 25.0729 15.5851 25.0729C15.5851 25.0729 15.5851 25.0728 15.5851 25.0728C15.5851 25.0727 15.5851 25.0727 15.5851 25.0726C15.5851 25.0726 15.5851 25.0725 15.5851 25.0725C15.5851 25.0724 15.5851 25.0724 15.5851 25.0724C15.5851 25.0723 15.5851 25.0723 15.5851 25.0722C15.5851 25.0722 15.5851 25.0721 15.5851 25.0721C15.5851 25.072 15.5851 25.072 15.5851 25.0719C15.5851 25.0719 15.5851 25.0719 15.5851 25.0718C15.5851 25.0718 15.5851 25.0717 15.5851 25.0717C15.5851 25.0716 15.5851 25.0716 15.5851 25.0715C15.5851 25.0715 15.5851 25.0714 15.5851 25.0714C15.5851 25.0714 15.5851 25.0713 15.5851 25.0713C15.5851 25.0712 15.5851 25.0712 15.5851 25.0711C15.5851 25.0711 15.5851 25.071 15.5851 25.071C15.5851 25.0709 15.5851 25.0709 15.5851 25.0709C15.5851 25.0708 15.5851 25.0708 15.5851 25.0707C15.5851 25.0707 15.5851 25.0706 15.5851 25.0706C15.5851 25.0705 15.5851 25.0705 15.5851 25.0704C15.5851 25.0704 15.5851 25.0703 15.5851 25.0703C15.5851 25.0703 15.5851 25.0702 15.5851 25.0702C15.5851 25.0701 15.5851 25.0701 15.5851 25.07C15.5851 25.07 15.5851 25.0699 15.5851 25.0699C15.5851 25.0698 15.5851 25.0698 15.5851 25.0698C15.5851 25.0697 15.5851 25.0697 15.5851 25.0696C15.5851 25.0696 15.5851 25.0695 15.5851 25.0695C15.5851 25.0694 15.5851 25.0694 15.5851 25.0693C15.5851 25.0693 15.5851 25.0692 15.5851 25.0692C15.5851 25.0692 15.5851 25.0691 15.5851 25.0691C15.5851 25.069 15.5851 25.069 15.5851 25.0689C15.5851 25.0689 15.5851 25.0688 15.5851 25.0688C15.5851 25.0687 15.5851 25.0687 15.5851 25.0686C15.5851 25.0686 15.5851 25.0686 15.5851 25.0685C15.5851 25.0685 15.5851 25.0684 15.5851 25.0684C15.5851 25.0683 15.5851 25.0683 15.5851 25.0682C15.5851 25.0682 15.5851 25.0681 15.5851 25.0681C15.5851 25.068 15.5851 25.068 15.5851 25.068C15.5851 25.0679 15.5851 25.0679 15.5851 25.0678C15.5851 25.0678 15.5851 25.0677 15.5851 25.0677C15.5851 25.0676 15.5851 25.0676 15.5851 25.0675C15.5851 25.0675 15.5851 25.0674 15.5851 25.0674C15.5851 25.0674 15.5851 25.0673 15.5851 25.0673C15.5851 25.0672 15.5851 25.0672 15.5851 25.0671C15.5851 25.0671 15.5851 25.067 15.5851 25.067C15.5851 25.0669 15.5851 25.0669 15.5851 25.0668C15.5851 25.0668 15.5851 25.0667 15.5851 25.0667C15.5851 25.0667 15.5851 25.0666 15.5851 25.0666C15.5851 25.0665 15.5851 25.0665 15.5851 25.0664C15.5851 25.0664 15.5851 25.0663 15.5851 25.0663C15.5851 25.0662 15.5851 25.0662 15.5851 25.0661C15.5851 25.0661 15.5851 25.066 15.5851 25.066C15.5851 25.066 15.5851 25.0659 15.5851 25.0659C15.5851 25.0658 15.5851 25.0658 15.5851 25.0657C15.5851 25.0657 15.5851 25.0656 15.5851 25.0656C15.5851 25.0655 15.5851 25.0655 15.5851 25.0654C15.5851 25.0654 15.5851 25.0653 15.5851 25.0653C15.5851 25.0653 15.5851 25.0652 15.5851 25.0652C15.5851 25.0651 15.5851 25.0651 15.5851 25.065C15.5851 25.065 15.5851 25.0649 15.5851 25.0649C15.5851 25.0648 15.5851 25.0648 15.5851 25.0647C15.5851 25.0647 15.5851 25.0646 15.5851 25.0646C15.5851 25.0646 15.5851 25.0645 15.5851 25.0645C15.5851 25.0644 15.5851 25.0644 15.5851 25.0643C15.5851 25.0643 15.5851 25.0642 15.5851 25.0642C15.5851 25.0641 15.5851 25.0641 15.5851 25.064C15.5851 25.064 15.5851 25.0639 15.5851 25.0639C15.5851 25.0638 15.5851 25.0638 15.5851 25.0638C15.5851 25.0637 15.5851 25.0637 15.5851 25.0636C15.5851 25.0636 15.5851 25.0635 15.5851 25.0635C15.5851 25.0634 15.5851 25.0634 15.5851 25.0633C15.5851 25.0633 15.5851 25.0632 15.5851 25.0632C15.5851 25.0631 15.5851 25.0631 15.5851 25.063C15.5851 25.063 15.5851 25.063 15.5851 25.0629C15.5851 25.0629 15.5851 25.0628 15.5851 25.0628C15.5851 25.0627 15.5851 25.0627 15.5851 25.0626C15.5851 25.0626 15.5851 25.0625 15.5851 25.0625C15.5851 25.0624 15.5851 25.0624 15.5851 25.0623C15.5851 25.0623 15.5851 25.0622 15.5851 25.0622C15.5851 25.0622 15.5851 25.0621 15.5851 25.0621C15.5851 25.062 15.5851 25.062 15.5851 25.0619C15.5851 25.0619 15.5851 25.0618 15.5851 25.0618C15.5851 25.0617 15.5851 25.0617 15.5851 25.0616C15.5851 25.0616 15.5851 25.0615 15.5851 25.0615C15.5851 25.0614 15.5851 25.0614 15.5851 25.0613C15.5851 25.0613 15.5851 25.0613 15.5851 25.0612C15.5851 25.0612 15.5851 25.0611 15.5851 25.0611C15.5851 25.061 15.5851 25.061 15.5851 25.0609C15.5851 25.0609 15.5851 25.0608 15.5851 25.0608C15.5851 25.0607 15.5851 25.0607 15.5851 25.0606C15.5851 25.0606 15.5851 25.0605 15.5851 25.0605C15.5851 25.0604 15.5851 25.0604 15.5851 25.0604C15.5851 25.0603 15.5851 25.0603 15.5851 25.0602C15.5851 25.0602 15.5851 25.0601 15.5851 25.0601C15.5851 25.06 15.5851 25.06 15.5851 25.0599C15.5851 25.0599 15.5851 25.0598 15.5851 25.0598C15.5851 25.0597 15.5851 25.0597 15.5851 25.0596C15.5851 25.0596 15.5851 25.0595 15.5851 25.0595C15.5851 25.0594 15.5851 25.0594 15.5851 25.0594C15.5851 25.0593 15.5851 25.0593 15.5851 25.0592C15.5851 25.0592 15.5851 25.0591 15.5851 25.0591C15.5851 25.059 15.5851 25.059 15.5851 25.0589C15.5851 25.0589 15.5851 25.0588 15.5851 25.0588C15.5851 25.0587 15.5851 25.0587 15.5851 25.0586C15.5851 25.0586 15.5851 25.0585 15.5851 25.0585C15.5851 25.0584 15.5851 25.0584 15.5851 25.0584C15.5851 25.0583 15.5851 25.0583 15.5851 25.0582C15.5851 25.0582 15.5851 25.0581 15.5851 25.0581C15.5851 25.058 15.5851 25.058 15.5851 25.0579C15.5851 25.0579 15.5851 25.0578 15.5851 25.0578C15.5851 25.0577 15.5851 25.0577 15.5851 25.0576C15.5851 25.0576 15.5851 25.0575 15.5851 25.0575C15.5851 25.0574 15.5851 25.0574 15.5851 25.0573C15.5851 25.0573 15.5851 25.0573 15.5851 25.0572C15.5851 25.0572 15.5851 25.0571 15.5851 25.0571C15.5851 25.057 15.5851 25.057 15.5851 25.0569C15.5851 25.0569 15.5851 25.0568 15.5851 25.0568C15.5851 25.0567 15.5851 25.0567 15.5851 25.0566C15.5851 25.0566 15.5851 25.0565 15.5851 25.0565C15.5851 25.0564 15.5851 25.0564 15.5851 25.0563C15.5851 25.0563 15.5851 25.0562 15.5851 25.0562C15.5851 25.0562 15.5851 25.0561 15.5851 25.0561C15.5851 25.056 15.5851 25.056 15.5851 25.0559C15.5851 25.0559 15.5851 25.0558 15.5851 25.0558C15.5851 25.0557 15.5851 25.0557 15.5851 25.0556C15.5851 25.0556 15.5851 25.0555 15.5851 25.0555C15.5851 25.0554 15.5851 25.0554 15.5851 25.0553C15.5851 25.0553 15.5851 25.0552 15.5851 25.0552C15.5851 25.0551 15.5851 25.0551 15.5851 25.055C15.5851 25.055 15.5851 25.055 15.5851 25.0549C15.5851 25.0549 15.5851 25.0548 15.5851 25.0548C15.5851 25.0547 15.5851 25.0547 15.5851 25.0546C15.5851 25.0546 15.5851 25.0545 15.5851 25.0545C15.5851 25.0544 15.5851 25.0544 15.5851 25.0543C15.5851 25.0543 15.5851 25.0542 15.5851 25.0542C15.5851 25.0541 15.5851 25.0541 15.5851 25.054C15.5851 25.054 15.5851 25.0539 15.5851 25.0539C15.5851 25.0538 15.5851 25.0538 15.5851 25.0537C15.5851 25.0537 15.5851 25.0537 15.5851 25.0536C15.5851 25.0536 15.5851 25.0535 15.5851 25.0535C15.5851 25.0534 15.5851 25.0534 15.5851 25.0533C15.5851 25.0533 15.5851 25.0532 15.5851 25.0532C15.5851 25.0531 15.5851 25.0531 15.5851 25.053C15.5851 25.053 15.5851 25.0529 15.5851 25.0529C15.5851 25.0528 15.5851 25.0528 15.5851 25.0527C15.5851 25.0527 15.5851 25.0526 15.5851 25.0526C15.5851 25.0525 15.5851 25.0525 15.5851 25.0524C15.5851 25.0524 15.5851 25.0523 15.5851 25.0523C15.5851 25.0523 15.5851 25.0522 15.5851 25.0522C15.5851 25.0521 15.5851 25.0521 15.5851 25.052C15.5851 25.052 15.5851 25.0519 15.5851 25.0519C15.5851 25.0518 15.5851 25.0518 15.5851 25.0517C15.5851 25.0517 15.5851 25.0516 15.5851 25.0516C15.5851 25.0515 15.5851 25.0515 15.5851 25.0514C15.5851 25.0514 15.5851 25.0513 15.5851 25.0513C15.5851 25.0512 15.5851 25.0512 15.5851 25.0511C15.5851 25.0511 15.5851 25.051 15.5851 25.051C15.5851 25.0509 15.5851 25.0509 15.5851 25.0508C15.5851 25.0508 15.5851 25.0508 15.5851 25.0507C15.5851 25.0507 15.5851 25.0506 15.5851 25.0506C15.5851 25.0505 15.5851 25.0505 15.5851 25.0504C15.5851 25.0504 15.5851 25.0503 15.5851 25.0503C15.5851 25.0502 15.5851 25.0502 15.5851 25.0501C15.5851 25.0501 15.5851 25.05 15.5851 25.05C15.5851 25.0499 15.5851 25.0499 15.5851 25.0498C15.5851 25.0498 15.5851 25.0497 15.5851 25.0497C15.5851 25.0496 15.5851 25.0496 15.5851 25.0495C15.5851 25.0495 15.5851 25.0494 15.5851 25.0494C15.5851 25.0493 15.5851 25.0493 15.5851 25.0493C15.5851 25.0492 15.5851 25.0492 15.5851 25.0491C15.5851 25.0491 15.5851 25.049 15.5851 25.049C15.5851 25.0489 15.5851 25.0489 15.5851 25.0488C15.5851 25.0488 15.5851 25.0487 15.5851 25.0487C15.5851 25.0486 15.5851 25.0486 15.5851 25.0485C15.5851 25.0485 15.5851 25.0484 15.5851 25.0484C15.5851 25.0483 15.5851 25.0483 15.5851 25.0482C15.5851 25.0482 15.5851 25.0481 15.5851 25.0481C15.5851 25.048 15.5851 25.048 15.5851 25.0479C15.5851 25.0479 15.5851 25.0478 15.5851 25.0478C15.5851 25.0477 15.5851 25.0477 15.5851 25.0476C15.5851 25.0476 15.5851 25.0476 15.5851 25.0475C15.5851 25.0475 15.5851 25.0474 15.5851 25.0474C15.5851 25.0473 15.5851 25.0473 15.5851 25.0472C15.5851 25.0472 15.5851 25.0471 15.5851 25.0471C15.5851 25.047 15.5851 25.047 15.5851 25.0469C15.5851 25.0469 15.5851 25.0468 15.5851 25.0468C15.5851 25.0467 15.5851 25.0467 15.5851 25.0466C15.5851 25.0466 15.5851 25.0465 15.5851 25.0465C15.5851 25.0464 15.5851 25.0464 15.5851 25.0463C15.5851 25.0463 15.5851 25.0462 15.5851 25.0462C15.5851 25.0461 15.5851 25.0461 15.5851 25.046C15.5851 25.046 15.5851 25.0459 15.5851 25.0459C15.5851 25.0458 15.5851 25.0458 15.5851 25.0458C15.5851 25.0457 15.5851 25.0457 15.5851 25.0456C15.5851 25.0456 15.5851 25.0455 15.5851 25.0455C15.5851 25.0454 15.5851 25.0454 15.5851 25.0453C15.5851 25.0453 15.5851 25.0452 15.5851 25.0452C15.5851 25.0451 15.5851 25.0451 15.5851 25.045C15.5851 25.045 15.5851 25.0449 15.5851 25.0449C15.5851 25.0448 15.5851 25.0448 15.5851 25.0447C15.5851 25.0447 15.5851 25.0446 15.5851 25.0446C15.5851 25.0445 15.5851 25.0445 15.5851 25.0444C15.5851 25.0444 15.5851 25.0443 15.5851 25.0443C15.5851 25.0442 15.5851 25.0442 15.5851 25.0441C15.5851 25.0441 15.5851 25.044 15.5851 25.044C15.5851 25.044 15.5851 25.0439 15.5851 25.0439C15.5851 25.0438 15.5851 25.0438 15.5851 25.0437C15.5851 25.0437 15.5851 25.0436 15.5851 25.0436C15.5851 25.0435 15.5851 25.0435 15.5851 25.0434C15.5851 25.0434 15.5851 25.0433 15.5851 25.0433C15.5851 25.0432 15.5851 25.0432 15.5851 25.0431C15.5851 25.0431 15.5851 25.043 15.5851 25.043C15.5851 25.0429 15.5851 25.0429 15.5851 25.0428C15.5851 25.0428 15.5851 25.0427 15.5851 25.0427C15.5851 25.0426 15.5851 25.0426 15.5851 25.0425C15.5851 25.0425 15.5851 25.0424 15.5851 25.0424C15.5851 25.0423 15.5851 25.0423 15.5851 25.0422C15.5851 25.0422 15.5851 25.0421 15.5851 25.0421C15.5851 25.042 15.5851 25.042 15.5851 25.042C15.5851 25.0419 15.5851 25.0419 15.5851 25.0418C15.5851 25.0418 15.5851 25.0417 15.5851 25.0417C15.5851 25.0416 15.5851 25.0416 15.5851 25.0415C15.5851 25.0415 15.5851 25.0414 15.5851 25.0414C15.5851 25.0413 15.5851 25.0413 15.5851 25.0412C15.5851 25.0412 15.5851 25.0411 15.5851 25.0411C15.5851 25.041 15.5851 25.041 15.5851 25.0409C15.5851 25.0409 15.5851 25.0408 15.5851 25.0408C15.5851 25.0407 15.5851 25.0407 15.5851 25.0406C15.5851 25.0406 15.5851 25.0405 15.5851 25.0405C15.5851 25.0404 15.5851 25.0404 15.5851 25.0403C15.5851 25.0403 15.5851 25.0402 15.5851 25.0402C15.5851 25.0401 15.5851 25.0401 15.5851 25.0401C15.5851 25.04 15.5851 25.04 15.5851 25.0399C15.5851 25.0399 15.5851 25.0398 15.5851 25.0398C15.5851 25.0397 15.5851 25.0397 15.5851 25.0396C15.5851 25.0396 15.5851 25.0395 15.5851 25.0395C15.5851 25.0394 15.5851 25.0394 15.5851 25.0393C15.5851 25.0393 15.5851 25.0392 15.5851 25.0392C15.5851 25.0391 15.5851 25.0391 15.5851 25.039C15.5851 25.039 15.5851 25.0389 15.5851 25.0389C15.5851 25.0388 15.5851 25.0388 15.5851 25.0387C15.5851 25.0387 15.5851 25.0386 15.5851 25.0386C15.5851 25.0385 15.5851 25.0385 15.5851 25.0384C15.5851 25.0384 15.5851 25.0383 15.5851 25.0383C15.5851 25.0382 15.5851 25.0382 15.5851 25.0381C15.5851 25.0381 15.5851 25.0381 15.5851 25.038C15.5851 25.038 15.5851 25.0379 15.5851 25.0379C15.5851 25.0378 15.5851 25.0378 15.5851 25.0377C15.5851 25.0377 15.5851 25.0376 15.5851 25.0376C15.5851 25.0375 15.5851 25.0375 15.5851 25.0374C15.5851 25.0374 15.5851 25.0373 15.5851 25.0373C15.5851 25.0372 15.5851 25.0372 15.5851 25.0371C15.5851 25.0371 15.5851 25.037 15.5851 25.037C15.5851 25.0369 15.5851 25.0369 15.5851 25.0368C15.5851 25.0368 15.5851 25.0367 15.5851 25.0367C15.5851 25.0366 15.5851 25.0366 15.5851 25.0365C15.5851 25.0365 15.5851 25.0364 15.5851 25.0364C15.5851 25.0363 15.5851 25.0363 15.5851 25.0363C15.5851 25.0362 15.5851 25.0362 15.5851 25.0361C15.5851 25.0361 15.5851 25.036 15.5851 25.036C15.5851 25.0359 15.5851 25.0359 15.5851 25.0358C15.5851 25.0358 15.5851 25.0357 15.5851 25.0357C15.5851 25.0356 15.5851 25.0356 15.5851 25.0355C15.5851 25.0355 15.5851 25.0354 15.5851 25.0354C15.5851 25.0353 15.5851 25.0353 15.5851 25.0352C15.5851 25.0352 15.5851 25.0351 15.5851 25.0351C15.5851 25.035 15.5851 25.035 15.5851 25.0349C15.5851 25.0349 15.5851 25.0348 15.5851 25.0348C15.5851 25.0347 15.5851 25.0347 15.5851 25.0346C15.5851 25.0346 15.5851 25.0345 15.5851 25.0345C15.5851 25.0344 15.5851 25.0344 15.5851 25.0344C15.5851 25.0343 15.5851 25.0343 15.5851 25.0342C15.5851 25.0342 15.5851 25.0341 15.5851 25.0341C15.5851 25.034 15.5851 25.034 15.5851 25.0339C15.5851 25.0339 15.5851 25.0338 15.5851 25.0338C15.5851 25.0337 15.5851 25.0337 15.5851 25.0336C15.5851 25.0336 15.5851 25.0335 15.5851 25.0335C15.5851 25.0334 15.5851 25.0334 15.5851 25.0333C15.5851 25.0333 15.5851 25.0332 15.5851 25.0332C15.5851 25.0331 15.5851 25.0331 15.5851 25.033C15.5851 25.033 15.5851 25.0329 15.5851 25.0329C15.5851 25.0328 15.5851 25.0328 15.5851 25.0327C15.5851 25.0327 15.5851 25.0327 15.5851 25.0326C15.5851 25.0326 15.5851 25.0325 15.5851 25.0325C15.5851 25.0324 15.5851 25.0324 15.5851 25.0323C15.5851 25.0323 15.5851 25.0322 15.5851 25.0322C15.5851 25.0321 15.5851 25.0321 15.5851 25.032C15.5851 25.032 15.5851 25.0319 15.5851 25.0319C15.5851 25.0318 15.5851 25.0318 15.5851 25.0317C15.5851 25.0317 15.5851 25.0316 15.5851 25.0316C15.5851 25.0315 15.5851 25.0315 15.5851 25.0314C15.5851 25.0314 15.5851 25.0313 15.5851 25.0313C15.5851 25.0312 15.5851 25.0312 15.5851 25.0311C15.5851 25.0311 15.5851 25.0311 15.5851 25.031C15.5851 25.031 15.5851 25.0309 15.5851 25.0309C15.5851 25.0308 15.5851 25.0308 15.5851 25.0307C15.5851 25.0307 15.5851 25.0306 15.5851 25.0306C15.5851 25.0305 15.5851 25.0305 15.5851 25.0304C15.5851 25.0304 15.5851 25.0303 15.5851 25.0303C15.5851 25.0302 15.5851 25.0302 15.5851 25.0301C15.5851 25.0301 15.5851 25.03 15.5851 25.03C15.5851 25.0299 15.5851 25.0299 15.5851 25.0298C15.5851 25.0298 15.5851 25.0297 15.5851 25.0297C15.5851 25.0296 15.5851 25.0296 15.5851 25.0295C15.5851 25.0295 15.5851 25.0295 15.5851 25.0294C15.5851 25.0294 15.5851 25.0293 15.5851 25.0293C15.5851 25.0292 15.5851 25.0292 15.5851 25.0291C15.5851 25.0291 15.5851 25.029 15.5851 25.029C15.5851 25.0289 15.5851 25.0289 15.5851 25.0288C15.5851 25.0288 15.5851 25.0287 15.5851 25.0287C15.5851 25.0286 15.5851 25.0286 15.5851 25.0285C15.5851 25.0285 15.5851 25.0284 15.5851 25.0284C15.5851 25.0283 15.5851 25.0283 15.5851 25.0282C15.5851 25.0282 15.5851 25.0281 15.5851 25.0281C15.5851 25.0281 15.5851 25.028 15.5851 25.028C15.5851 25.0279 15.5851 25.0279 15.5851 25.0278C15.5851 25.0278 15.5851 25.0277 15.5851 25.0277C15.5851 25.0276 15.5851 25.0276 15.5851 25.0275C15.5851 25.0275 15.5851 25.0274 15.5851 25.0274C15.5851 25.0273 15.5851 25.0273 15.5851 25.0272C15.5851 25.0272 15.5851 25.0271 15.5851 25.0271C15.5851 25.027 15.5851 25.027 15.5851 25.0269C15.5851 25.0269 15.5851 25.0268 15.5851 25.0268C15.5851 25.0267 15.5851 25.0267 15.5851 25.0267C15.5851 25.0266 15.5851 25.0266 15.5851 25.0265C15.5851 25.0265 15.5851 25.0264 15.5851 25.0264C15.5851 25.0263 15.5851 25.0263 15.5851 25.0262C15.5851 25.0262 15.5851 25.0261 15.5851 25.0261C15.5851 25.026 15.5851 25.026 15.5851 25.0259C15.5851 25.0259 15.5851 25.0258 15.5851 25.0258C15.5851 25.0257 15.5851 25.0257 15.5851 25.0256C15.5851 25.0256 15.5851 25.0255 15.5851 25.0255C15.5851 25.0255 15.5851 25.0254 15.5851 25.0254C15.5851 25.0253 15.5851 25.0253 15.5851 25.0252C15.5851 25.0252 15.5851 25.0251 15.5851 25.0251C15.5851 25.025 15.5851 25.025 15.5851 25.0249C15.5851 25.0249 15.5851 25.0248 15.5851 25.0248C15.5851 25.0247 15.5851 25.0247 15.5851 25.0246C15.5851 25.0246 15.5851 25.0245 15.5851 25.0245C15.5851 25.0244 15.5851 25.0244 15.5851 25.0243C15.5851 25.0243 15.5851 25.0243 15.5851 25.0242C15.5851 25.0242 15.5851 25.0241 15.5851 25.0241C15.5851 25.024 15.5851 25.024 15.5851 25.0239C15.5851 25.0239 15.5851 25.0238 15.5851 25.0238C15.5851 25.0237 15.5851 25.0237 15.5851 25.0236C15.5851 25.0236 15.5851 25.0235 15.5851 25.0235C15.5851 25.0234 15.5851 25.0234 15.5851 25.0233C15.5851 25.0233 15.5851 25.0232 15.5851 25.0232C15.5851 25.0232 15.5851 25.0231 15.5851 25.0231C15.5851 25.023 15.5851 25.023 15.5851 25.0229C15.5851 25.0229 15.5851 25.0228 15.5851 25.0228C15.5851 25.0227 15.5851 25.0227 15.5851 25.0226C15.5851 25.0226 15.5851 25.0225 15.5851 25.0225C15.5851 25.0224 15.5851 25.0224 15.5851 25.0223C15.5851 25.0223 15.5851 25.0222 15.5851 25.0222C15.5851 25.0221 15.5851 25.0221 15.5851 25.0221C15.5851 25.022 15.5851 25.022 15.5851 25.0219C15.5851 25.0219 15.5851 25.0218 15.5851 25.0218C15.5851 25.0217 15.5851 25.0217 15.5851 25.0216C15.5851 25.0216 15.5851 25.0215 15.5851 25.0215C15.5851 25.0214 15.5851 25.0214 15.5851 25.0213C15.5851 25.0213 15.5851 25.0212 15.5851 25.0212C15.5851 25.0211 15.5851 25.0211 15.5851 25.0211C15.5851 25.021 15.5851 25.021 15.5851 25.0209C15.5851 25.0209 15.5851 25.0208 15.5851 25.0208C15.5851 25.0207 15.5851 25.0207 15.5851 25.0206C15.5851 25.0206 15.5851 25.0205 15.5851 25.0205C15.5851 25.0204 15.5851 25.0204 15.5851 25.0203C15.5851 25.0203 15.5851 25.0202 15.5851 25.0202C15.5851 25.0202 15.5851 25.0201 15.5851 25.0201C15.5851 25.02 15.5851 25.02 15.5851 25.0199C15.5851 25.0199 15.5851 25.0198 15.5851 25.0198C15.5851 25.0197 15.5851 25.0197 15.5851 25.0196C15.5851 25.0196 15.5851 25.0195 15.5851 25.0195C15.5851 25.0194 15.5851 25.0194 15.5851 25.0193C15.5851 25.0193 15.5851 25.0193 15.5851 25.0192C15.5851 25.0192 15.5851 25.0191 15.5851 25.0191C15.5851 25.019 15.5851 25.019 15.5851 25.0189C15.5851 25.0189 15.5851 25.0188 15.5851 25.0188C15.5851 25.0187 15.5851 25.0187 15.5851 25.0186C15.5851 25.0186 15.5851 25.0185 15.5851 25.0185C15.5851 25.0184 15.5851 25.0184 15.5851 25.0184C15.5851 25.0183 15.5851 25.0183 15.5851 25.0182C15.5851 25.0182 15.5851 25.0181 15.5851 25.0181C15.5851 25.018 15.5851 25.018 15.5851 25.0179C15.5851 25.0179 15.5851 25.0178 15.5851 25.0178C15.5851 25.0177 15.5851 25.0177 15.5851 25.0176C15.5851 25.0176 15.5851 25.0176 15.5851 25.0175C15.5851 25.0175 15.5851 25.0174 15.5851 25.0174C15.5851 25.0173 15.5851 25.0173 15.5851 25.0172C15.5851 25.0172 15.5851 25.0171 15.5851 25.0171C15.5851 25.017 15.5851 25.017 15.5851 25.0169C15.5851 25.0169 15.5851 25.0168 15.5851 25.0168C15.5851 25.0168 15.5851 25.0167 15.5851 25.0167C15.5851 25.0166 15.5851 25.0166 15.5851 25.0165C15.5851 25.0165 15.5851 25.0164 15.5851 25.0164C15.5851 25.0163 15.5851 25.0163 15.5851 25.0162C15.5851 25.0162 15.5851 25.0161 15.5851 25.0161C15.5851 25.0161 15.5851 25.016 15.5851 25.016C15.5851 25.0159 15.5851 25.0159 15.5851 25.0158C15.5851 25.0158 15.5851 25.0157 15.5851 25.0157C15.5851 25.0156 15.5851 25.0156 15.5851 25.0155C15.5851 25.0155 15.5851 25.0154 15.5851 25.0154C15.5851 25.0154 15.5851 25.0153 15.5851 25.0153C15.5851 25.0152 15.5851 25.0152 15.5851 25.0151C15.5851 25.0151 15.5851 25.015 15.5851 25.015C15.5851 25.0149 15.5851 25.0149 15.5851 25.0148C15.5851 25.0148 15.5851 25.0147 15.5851 25.0147C15.5851 25.0147 15.5851 25.0146 15.5851 25.0146C15.5851 25.0145 15.5851 25.0145 15.5851 25.0144C15.5851 25.0144 15.5851 25.0143 15.5851 25.0143C15.5851 25.0142 15.5851 25.0142 15.5851 25.0141C15.5851 25.0141 15.5851 25.014 15.5851 25.014C15.5851 25.014 15.5851 25.0139 15.5851 25.0139C15.5851 25.0138 15.5851 25.0138 15.5851 25.0137C15.5851 25.0137 15.5851 25.0136 15.5851 25.0136C15.5851 25.0135 15.5851 25.0135 15.5851 25.0134C15.5851 25.0134 15.5851 25.0134 15.5851 25.0133C15.5851 25.0133 15.5851 25.0132 15.5851 25.0132C15.5851 25.0131 15.5851 25.0131 15.5851 25.013C15.5851 25.013 15.5851 25.0129 15.5851 25.0129C15.5851 25.0128 15.5851 25.0128 15.5851 25.0127C15.5851 25.0127 15.5851 25.0127 15.5851 25.0126C15.5851 25.0126 15.5851 25.0125 15.5851 25.0125C15.5851 25.0124 15.5851 25.0124 15.5851 25.0123C15.5851 25.0123 15.5851 25.0122 15.5851 25.0122C15.5851 25.0121 15.5851 25.0121 15.5851 25.0121C15.5851 25.012 15.5851 25.012 15.5851 25.0119C15.5851 25.0119 15.5851 25.0118 15.5851 25.0118C15.5851 25.0117 15.5851 25.0117 15.5851 25.0116C15.5851 25.0116 15.5851 25.0115 15.5851 25.0115C15.5851 25.0115 15.5851 25.0114 15.5851 25.0114C15.5851 25.0113 15.5851 25.0113 15.5851 25.0112C15.5851 25.0112 15.5851 25.0111 15.5851 25.0111C15.5851 25.011 15.5851 25.011 15.5851 25.011C15.5851 25.0109 15.5851 25.0109 15.5851 25.0108C15.5851 25.0108 15.5851 25.0107 15.5851 25.0107C15.5851 25.0106 15.5851 25.0106 15.5851 25.0105C15.5851 25.0105 15.5851 25.0104 15.5851 25.0104C15.5851 25.0104 15.5851 25.0103 15.5851 25.0103C15.5851 25.0102 15.5851 25.0102 15.5851 25.0101C15.5851 25.0101 15.5851 25.01 15.5851 25.01C15.5851 25.0099 15.5851 25.0099 15.5851 25.0099C15.5851 25.0098 15.5851 25.0098 15.5851 25.0097C15.5851 25.0097 15.5851 25.0096 15.5851 25.0096C15.5851 25.0095 15.5851 25.0095 15.5851 25.0094C15.5851 25.0094 15.5851 25.0094 15.5851 25.0093C15.5851 25.0093 15.5851 25.0092 15.5851 25.0092C15.5851 25.0091 15.5851 25.0091 15.5851 25.009C15.5851 25.009 15.5851 25.0089 15.5851 25.0089C15.5851 25.0089 15.5851 25.0088 15.5851 25.0088C15.5851 25.0087 15.5851 25.0087 15.5851 25.0086C15.5851 25.0086 15.5851 25.0085 15.5851 25.0085C15.5851 25.0084 15.5851 25.0084 15.5851 25.0084C15.5851 25.0083 15.5851 25.0083 15.5851 25.0082C15.5851 25.0082 15.5851 25.0081 15.5851 25.0081C15.5851 25.008 15.5851 25.008 15.5851 25.0079C15.5851 25.0079 15.5851 25.0079 15.5851 25.0078C15.5851 25.0078 15.5851 25.0077 15.5851 25.0077C15.5851 25.0076 15.5851 25.0076 15.5851 25.0075C15.5851 25.0075 15.5851 25.0074 15.5851 25.0074C15.5851 25.0074 15.5851 25.0073 15.5851 25.0073C15.5851 25.0072 15.5851 25.0072 15.5851 25.0071C15.5851 25.0071 15.5851 25.007 15.5851 25.007C15.5851 25.007 15.5851 25.0069 15.5851 25.0069C15.5851 25.0068 15.5851 25.0068 15.5851 25.0067C15.5851 25.0067 15.5851 25.0066 15.5851 25.0066C15.5851 25.0065 15.5851 25.0065 15.5851 25.0065C15.5851 25.0064 15.5851 25.0064 15.5851 25.0063C15.5851 25.0063 15.5851 25.0062 15.5851 25.0062C15.5851 25.0061 15.5851 25.0061 15.5851 25.0061C15.5851 25.006 15.5851 25.006 15.5851 25.0059C15.5851 25.0059 15.5851 25.0058 15.5851 25.0058C15.5851 25.0057 15.5851 25.0057 15.5851 25.0057C15.5851 25.0056 15.5851 25.0056 15.5851 25.0055C15.5851 25.0055 15.5851 25.0054 15.5851 25.0054C15.5851 25.0053 15.5851 25.0053 15.5851 25.0053C15.5851 25.0052 15.5851 25.0052 15.5851 25.0051C15.5851 25.0051 15.5851 25.005 15.5851 25.005C15.5851 25.0049 15.5851 25.0049 15.5851 25.0048C15.5851 25.0048 15.5851 25.0048 15.5851 25.0047C15.5851 25.0047 15.5851 25.0046 15.5851 25.0046C15.5851 25.0045 15.5851 25.0045 15.5851 25.0044C15.5851 25.0044 15.5851 25.0044 15.5851 25.0043C15.5851 25.0043 15.5851 25.0042 15.5851 25.0042H11.5851ZM11.5851 25.0768C11.5851 28.8412 14.3109 32.0186 18.0086 32.7441L18.7786 28.8189C16.8781 28.446 15.5851 26.8492 15.5851 25.0768H11.5851ZM17.8866 28.8468C17.2843 29.0046 16.6578 29.0281 16.0558 28.9154L15.32 32.8472C16.5125 33.0704 17.7365 33.0212 18.9006 32.7161L17.8866 28.8468ZM13.7895 31.5104C14.8509 34.7135 17.8653 36.8588 21.2472 36.9246L21.3251 32.9253C19.5761 32.8913 18.0951 31.7872 17.5864 30.2522L13.7895 31.5104ZM20.0723 33.3355C18.3036 34.6862 16.1107 35.4248 13.8501 35.421L13.8434 39.421C16.9754 39.4263 20.0257 38.4041 22.5 36.5145L20.0723 33.3355ZM13.8468 35.421C13.446 35.421 13.0525 35.3981 12.6696 35.3503L12.1734 39.3194C12.7344 39.3895 13.2943 39.421 13.8468 39.421V35.421ZM11.3591 39.0293C14.4116 40.9431 17.9733 41.9539 21.5974 41.9489L21.5918 37.9489C18.711 37.9529 15.8894 37.1484 13.4839 35.6403L11.3591 39.0293Z" fill="#E5F4FF" mask="url(#path-2-outside-1_72_101)"/>
</svg>
