<svg width="52" height="55" viewBox="0 0 52 55" fill="none" xmlns="http://www.w3.org/2000/svg">
<path d="M26.2684 0.0732422C12.212 0.0732422 0.865234 11.42 0.865234 25.4764C0.865234 31.2344 2.72813 36.6538 6.28457 41.057L2.72813 51.8956C2.55878 52.5731 2.72813 53.2505 3.23619 53.7585C3.40555 54.0972 3.91361 54.2666 4.25232 54.2666C4.42167 54.2666 4.76038 54.2666 4.92974 54.0972L16.6152 48.8473C19.6636 50.2021 22.8813 50.8795 26.2684 50.8795C40.3248 50.8795 51.6715 39.5328 51.6715 25.4764C51.6715 11.42 40.3248 0.0732422 26.2684 0.0732422Z" fill="#005593"/>
<path d="M20.3809 14.5733L20.3809 14.5735C20.5303 14.9336 20.7423 15.4496 20.9701 16.0042C21.1291 16.3911 21.2957 16.7967 21.4542 17.1813C21.6478 17.6511 21.8295 18.0904 21.9721 18.4305C22.0435 18.6008 22.1041 18.7442 22.1512 18.8532C22.1747 18.9078 22.1939 18.9518 22.2089 18.9852C22.2227 19.016 22.2294 19.0301 22.2308 19.0331C22.2311 19.0337 22.2311 19.0339 22.231 19.0336L22.2313 19.0341C22.416 19.4038 22.7423 20.2087 22.3174 21.0589L20.3809 14.5733ZM20.3809 14.5733C20.1618 14.0452 19.8875 13.5535 19.4173 13.2483M20.3809 14.5733L19.4173 13.2483M14.8476 26.6391L14.8464 26.6375L14.8395 26.6283C14.6662 26.3968 14.0123 25.523 13.3971 24.3114C12.7806 23.0973 12.1586 21.4592 12.1586 19.7345C12.1586 16.4171 13.8323 14.7117 14.5219 14.009C14.541 13.9895 14.5594 13.9708 14.577 13.9528L14.8476 26.6391ZM14.8476 26.6391C14.8471 26.6384 14.8471 26.6385 14.8477 26.6394C14.8494 26.6416 14.855 26.6494 14.8664 26.6658C14.8808 26.6864 14.8991 26.713 14.9228 26.7474C14.9293 26.7568 14.936 26.7666 14.9431 26.7769C14.987 26.8409 15.043 26.9223 15.109 27.0172C15.263 27.2384 15.4733 27.5351 15.7366 27.8875C16.2626 28.5916 17.0008 29.5188 17.9286 30.5161C19.7745 32.5004 22.4161 34.8113 25.6774 36.1626L25.6775 36.1626M14.8476 26.6391L25.6775 36.1626M25.6775 36.1626C28.1111 37.1706 29.7504 37.6563 30.955 37.8484M25.6775 36.1626L30.955 37.8484M38.4306 34.2024L38.4305 34.2026C38.0744 35.2001 37.2495 35.9999 36.4032 36.5708C35.539 37.1538 34.5233 37.5861 33.5982 37.7882L38.4306 34.2024ZM38.4306 34.2024C38.7138 33.4087 38.8587 32.6637 38.9104 32.065C38.9362 31.7667 38.9401 31.4896 38.9214 31.2506C38.9071 31.0672 38.8702 30.7354 38.7022 30.4552C38.479 30.0826 38.1289 29.8743 37.9126 29.7556C37.7752 29.6803 37.589 29.59 37.4083 29.5024C37.3089 29.4542 37.2113 29.4069 37.1243 29.3633L37.1232 29.3627M38.4306 34.2024L37.1232 29.3627M37.1232 29.3627C36.8139 29.2081 35.908 28.7612 35.0089 28.3273C34.1421 27.909 33.1927 27.4589 32.8524 27.3352M37.1232 29.3627L30.195 28.1424M30.195 28.1424L30.1952 28.142C30.5164 27.698 30.9369 27.3674 31.4628 27.2334C31.9732 27.1034 32.4562 27.1911 32.8524 27.3352M30.195 28.1424C30.055 28.3362 29.9212 28.5237 29.7933 28.7031C29.3423 29.3354 28.9641 29.8658 28.6427 30.2061C28.6319 30.2175 28.6082 30.2372 28.5474 30.2455C28.4813 30.2545 28.3856 30.2461 28.2812 30.2019C28.2169 30.1745 28.1428 30.1442 28.0596 30.1102C27.2658 29.7856 25.6371 29.1197 23.6525 27.3505C21.9711 25.8515 20.8152 23.9804 20.4673 23.3848M30.195 28.1424L20.4673 23.3848M32.8524 27.3352L32.5107 28.275L32.8522 27.3351C32.8522 27.3351 32.8523 27.3352 32.8524 27.3352ZM20.4673 23.3848C20.4802 23.3674 20.4958 23.3472 20.5152 23.3231C20.5371 23.2957 20.5585 23.2699 20.585 23.238C20.5927 23.2286 20.6009 23.2186 20.6097 23.208L20.6101 23.2076C20.7455 23.0436 20.8779 22.8999 21.0253 22.7421C21.0401 22.7262 21.0552 22.7101 21.0704 22.6938C21.2031 22.552 21.3517 22.3932 21.5037 22.216L21.5043 22.2153C21.5223 22.1942 21.5402 22.1734 21.5578 22.1528C21.835 21.8298 22.0684 21.5578 22.3172 21.0593L20.4673 23.3848ZM19.4173 13.2483C18.9733 12.96 18.4888 12.9386 18.2146 12.9264M19.4173 13.2483L18.2146 12.9264M18.2146 12.9264C18.1996 12.9258 18.1852 12.9251 18.1716 12.9245L18.2146 12.9264ZM30.955 37.8484C32.2024 38.0473 32.9625 37.9272 33.5979 37.7882L30.955 37.8484ZM18.1712 12.9245C17.9545 12.9141 17.7037 12.9033 17.4257 12.9033C16.4777 12.9033 15.3373 13.1749 14.577 13.9527L18.1712 12.9245Z" stroke="#E5F4FF" stroke-width="2"/>
</svg>
